<svg id="mail" xmlns="http://www.w3.org/2000/svg" width="24.669" height="18.502" viewBox="0 0 24.669 18.502">
  <path id="Path_27" data-name="Path 27" d="M7.1,65.5c3.386,2.867,9.327,7.912,11.073,9.485a1.032,1.032,0,0,0,1.492,0c1.748-1.574,7.689-6.619,11.074-9.487a.514.514,0,0,0,.072-.709A2.041,2.041,0,0,0,29.194,64H8.636a2.041,2.041,0,0,0-1.613.792A.514.514,0,0,0,7.1,65.5Z" transform="translate(-6.581 -64)" fill="#fff"/>
  <path id="Path_28" data-name="Path 28" d="M346.413,126.459a.512.512,0,0,0-.548.074c-2.217,1.88-5.139,4.363-7.342,6.258a.514.514,0,0,0,.014.791c2.047,1.64,5.132,3.9,7.36,5.5a.514.514,0,0,0,.814-.417V126.926A.514.514,0,0,0,346.413,126.459Z" transform="translate(-322.042 -123.404)" fill="#fff"/>
  <path id="Path_29" data-name="Path 29" d="M.814,139.089c2.228-1.6,5.314-3.859,7.361-5.5a.514.514,0,0,0,.014-.79c-2.2-1.9-5.125-4.379-7.343-6.258a.514.514,0,0,0-.846.392v11.738a.514.514,0,0,0,.814.417Z" transform="translate(0 -123.413)" fill="#fff"/>
  <path id="Path_30" data-name="Path 30" d="M32.247,291.06c-2.152-1.539-6.115-4.409-8.481-6.329a.515.515,0,0,0-.661.012c-.464.405-.853.746-1.128.994a2.081,2.081,0,0,1-2.869,0c-.275-.247-.663-.59-1.127-.993a.512.512,0,0,0-.661-.012c-2.358,1.914-6.326,4.787-8.481,6.329a.514.514,0,0,0-.077.768,2.059,2.059,0,0,0,1.5.66H30.821a2.062,2.062,0,0,0,1.5-.66.514.514,0,0,0-.077-.768Z" transform="translate(-8.208 -273.986)" fill="#fff"/>
</svg>
