<svg xmlns="http://www.w3.org/2000/svg" xmlns:xlink="http://www.w3.org/1999/xlink" viewBox="0 0 166.02 173.09"><defs><style>.cls-1{fill:#fff662;}.cls-2{fill:url(#linear-gradient);}.cls-3{fill:url(#linear-gradient-2);}.cls-4{fill:url(#linear-gradient-3);}.cls-5{fill:url(#linear-gradient-4);}</style><linearGradient id="linear-gradient" x1="23" y1="93.83" x2="107.64" y2="93.83" gradientUnits="userSpaceOnUse"><stop offset="0" stop-color="#5954c0"/><stop offset="1" stop-color="#1e0f78"/></linearGradient><linearGradient id="linear-gradient-2" x1="58" y1="78.78" x2="99.71" y2="78.78" xlink:href="#linear-gradient"/><linearGradient id="linear-gradient-3" x1="61.96" y1="90.41" x2="99.71" y2="90.41" xlink:href="#linear-gradient"/><linearGradient id="linear-gradient-4" x1="63.86" y1="45.94" x2="90.82" y2="45.94" xlink:href="#linear-gradient"/></defs><title>bag</title><g id="Layer_2" data-name="Layer 2"><g id="Layer_1-2" data-name="Layer 1"><path class="cls-1" d="M13.69,120.45a21.75,21.75,0,0,0-3.85.85A7.2,7.2,0,0,0,13.69,120.45Z"/><path class="cls-1" d="M166,121.75c-.48-13-11.2-18.35-16.08-28.73-4.67-10-1.26-21-5.52-29.86-8.21-17.05-8.33,5.76-13.53-14.56-2.83-11.07,4.65-18.44,2.52-30.88C129-8,100.59,2.2,80.34,1c-27.62-1.58-37-3.23-55.5,24.77-5.92,9-7.09,15.55-10.56,22.6-2.48,5-9.39,17.21-4,22C4.78,74,4.29,84.07,0,88.54,11.13,99-14.62,125.78,16.05,117.25a5.2,5.2,0,0,1-2.36,3.2c8.92-1,2.52,8.79,17.74.57a41.28,41.28,0,0,1-7,5.37c-1.31,1.66,7.91-2.13,8.64-2.55,4.11,6.62-9.75,12.92-1.43,20.49,7.67,7,24.31,6.67,34,8.57,1.93.38,58.66,10.44,50.71,20.2A29.5,29.5,0,0,0,121.21,163C134.44,176.92,166.63,143.87,166,121.75ZM78.77,65.1s-2-13-3-29l3-13,9,16,7,12Zm22.59,49.08a1.86,1.86,0,0,1,.57.46A1.78,1.78,0,0,1,101.36,114.19Z"/><path class="cls-1" d="M91.13,108.81a4.92,4.92,0,0,0-.49.05A.92.92,0,0,0,91.13,108.81Z"/><path class="cls-1" d="M111,119l0,0,.05,0Z"/><path class="cls-2" d="M104.62,113.14h-5a4.89,4.89,0,0,0-9.73,0H75.71a4.89,4.89,0,0,0-9.73,0h-.73a4,4,0,0,1-4-4V102h43a1.61,1.61,0,0,0,1.6-1.51L107.64,70a1.61,1.61,0,0,0-1.6-1.7H46.51A1.61,1.61,0,0,0,45,70.51L58,100.7v2.88a4.55,4.55,0,0,1-2.58-2.44l-18.7-43a1.61,1.61,0,0,0-1.47-1H24.61a1.61,1.61,0,0,0,0,3.21H34.2l18.28,42A7.76,7.76,0,0,0,58,106.9v2.21a7.25,7.25,0,0,0,7.24,7.24h.68v2.26a6.89,6.89,0,0,0-2.05,4.91,7,7,0,1,0,14,0,6.89,6.89,0,0,0-2.05-4.91v-2.26H89.87v2.26a6.89,6.89,0,0,0-2.05,4.91,7,7,0,1,0,14,0,6.89,6.89,0,0,0-2.05-4.91v-2.26h4.91a1.61,1.61,0,1,0,0-3.21Zm-.3-41.66-1.65,27.28h-42L48.94,71.48ZM94.79,112a1.71,1.71,0,0,1,1.71,1.71v1h0v4a1.68,1.68,0,0,1,0,.21v0a1.73,1.73,0,0,1-.35.81l0,0-.15.16-.09.08-.14.1-.15.08-.12.06-.21.06-.1,0a1.64,1.64,0,0,1-.66,0l-.1,0-.21-.07-.11-.05-.16-.09-.13-.09-.11-.09-.14-.15,0-.06a1.73,1.73,0,0,1-.35-.81v0a1.68,1.68,0,0,1,0-.22v-4h0v-1A1.71,1.71,0,0,1,94.79,112Zm-25.66,1.71a1.71,1.71,0,0,1,3.42,0v5.11a1.68,1.68,0,0,1,0,.22v0a1.73,1.73,0,0,1-.35.81l0,.06-.14.15-.11.09-.13.09-.16.09-.11.05-.21.07-.1,0a1.64,1.64,0,0,1-.66,0l-.1,0-.21-.06-.12-.06-.15-.08-.14-.1-.09-.08-.15-.16,0,0a1.73,1.73,0,0,1-.35-.81v0a1.69,1.69,0,0,1,0-.21Zm1.71,13.6a3.77,3.77,0,0,1-3.77-3.77,3.66,3.66,0,0,1,.23-1.29l0,0,.11.09a4.85,4.85,0,0,0,2.38,1.26,4.94,4.94,0,0,0,2,0,4.85,4.85,0,0,0,2.39-1.26l.11-.09,0,0a3.66,3.66,0,0,1,.23,1.29A3.77,3.77,0,0,1,70.84,127.28Zm24,0A3.77,3.77,0,0,1,91,123.52a3.66,3.66,0,0,1,.23-1.29l0,0,.11.09a4.85,4.85,0,0,0,2.39,1.26,4.94,4.94,0,0,0,2,0,4.84,4.84,0,0,0,2.38-1.25l.12-.1,0,0a3.65,3.65,0,0,1,.23,1.29A3.77,3.77,0,0,1,94.79,127.28Z"/><path class="cls-3" d="M99.71,78.78a1.61,1.61,0,0,0-1.61-1.61H59.6a1.61,1.61,0,1,0,0,3.21h38.5A1.61,1.61,0,0,0,99.71,78.78Z"/><path class="cls-4" d="M98.11,88.8H63.56a1.61,1.61,0,0,0,0,3.21H98.11a1.61,1.61,0,1,0,0-3.21Z"/><path class="cls-5" d="M76.21,61.43a1.6,1.6,0,0,0,2.26,0l11.87-11.8a1.61,1.61,0,0,0-1.13-2.74H84.42V31.58A1.61,1.61,0,0,0,82.82,30H71.87a1.61,1.61,0,0,0-1.61,1.61v15.3H65.47a1.61,1.61,0,0,0-1.13,2.74ZM71.87,50.09a1.61,1.61,0,0,0,1.61-1.61V33.19h7.74v15.3a1.61,1.61,0,0,0,1.61,1.61h2.5l-8,7.93-8-7.93Z"/></g></g></svg>