<svg xmlns="http://www.w3.org/2000/svg" xmlns:xlink="http://www.w3.org/1999/xlink" viewBox="0 0 88.7 88.9"><defs><style>.cls-1{fill:#ffcc5b;}.cls-2{fill:url(#linear-gradient);}.cls-3{fill:url(#linear-gradient-2);}.cls-4{fill:url(#linear-gradient-3);}</style><linearGradient id="linear-gradient" x1="-20.33" y1="-4.28" x2="60.18" y2="-4.28" gradientTransform="translate(26.8 45.34) rotate(-18.45)" gradientUnits="userSpaceOnUse"><stop offset="0" stop-color="#5954c0"/><stop offset="1" stop-color="#1e0f78"/></linearGradient><linearGradient id="linear-gradient-2" x1="9.72" y1="-19.79" x2="35.25" y2="-19.79" xlink:href="#linear-gradient"/><linearGradient id="linear-gradient-3" x1="9.72" y1="-13.99" x2="28.43" y2="-13.99" xlink:href="#linear-gradient"/></defs><title>card</title><g id="Layer_2" data-name="Layer 2"><g id="Layer_1-2" data-name="Layer 1"><path class="cls-1" d="M54.8,70.62a1.32,1.32,0,0,0-.9,1.63L58.43,88A1.32,1.32,0,0,0,61,87.22L56.43,71.51A1.32,1.32,0,0,0,54.8,70.62Z"/><path class="cls-1" d="M50,81.45,46.71,70.17a1.32,1.32,0,0,0-2.53.73l3.26,11.27A1.32,1.32,0,0,0,50,81.45Z"/><path class="cls-1" d="M63,63.06a1.32,1.32,0,0,0-.9,1.63l3.81,13.2a1.32,1.32,0,0,0,2.53-.73L64.62,64A1.32,1.32,0,0,0,63,63.06Z"/><path class="cls-2" d="M67.75.37l-62.88,21a7.12,7.12,0,0,0-4.5,9L7,50.23l3.67,11L12,65.08a7.12,7.12,0,0,0,9,4.5l62.88-21a7.12,7.12,0,0,0,4.5-9L87,35.76l-3.67-11L76.74,4.86A7.12,7.12,0,0,0,67.75.37Zm12.72,24-8.29,2.77A1.32,1.32,0,1,0,73,29.6l8.29-2.77,2.84,8.5L63.52,42.22a1.32,1.32,0,0,0,.83,2.5L85,37.84l.87,2.6A4.49,4.49,0,0,1,83,46.11l-62.88,21a4.49,4.49,0,0,1-5.67-2.83l-.87-2.6,40.5-13.51a1.32,1.32,0,1,0-.83-2.5L12.75,59.15l-2.84-8.5,53.93-18a1.32,1.32,0,1,0-.83-2.5l-53.93,18L2.86,29.5A4.49,4.49,0,0,1,5.7,23.84l62.88-21a4.49,4.49,0,0,1,5.67,2.83Z"/><path class="cls-1" d="M24.27,23.94l-14,4.68a2.48,2.48,0,0,0-1.56,3.13l2.06,6.19a2.48,2.48,0,0,0,3.13,1.56l14-4.68a2.48,2.48,0,0,0,1.57-3.13L27.4,25.51A2.48,2.48,0,0,0,24.27,23.94Zm2.65,8.43L13.19,37l-2-5.89L25,26.49Z"/><path class="cls-3" d="M52.31,14.59,30.59,21.83a1.32,1.32,0,1,0,.83,2.5l21.72-7.25a1.32,1.32,0,0,0-.83-2.5Z"/><path class="cls-4" d="M47.68,22.24,32.43,27.33a1.32,1.32,0,1,0,.83,2.5l15.26-5.09a1.32,1.32,0,0,0-.83-2.5Z"/></g></g></svg>