<svg xmlns="http://www.w3.org/2000/svg" xmlns:xlink="http://www.w3.org/1999/xlink" viewBox="0 0 161.57 169.18"><defs><style>.cls-1{fill:#fff662;}.cls-2{fill:url(#linear-gradient);}.cls-3{fill:url(#linear-gradient-2);}.cls-4{fill:url(#linear-gradient-3);}.cls-5{fill:url(#linear-gradient-4);}.cls-6{fill:url(#linear-gradient-5);}.cls-7{fill:url(#linear-gradient-6);}.cls-8{fill:url(#linear-gradient-7);}.cls-9{fill:url(#linear-gradient-8);}.cls-10{fill:url(#linear-gradient-9);}.cls-11{fill:url(#linear-gradient-10);}.cls-12{fill:url(#linear-gradient-11);}.cls-13{fill:url(#linear-gradient-12);}.cls-14{fill:url(#linear-gradient-13);}.cls-15{fill:url(#linear-gradient-14);}.cls-16{fill:url(#linear-gradient-15);}.cls-17{fill:url(#linear-gradient-16);}.cls-18{fill:url(#linear-gradient-17);}.cls-19{fill:url(#linear-gradient-18);}.cls-20{fill:url(#linear-gradient-19);}.cls-21{fill:url(#linear-gradient-20);}.cls-22{fill:url(#linear-gradient-21);}.cls-23{fill:url(#linear-gradient-22);}.cls-24{fill:url(#linear-gradient-23);}.cls-25{fill:url(#linear-gradient-24);}.cls-26{fill:url(#linear-gradient-25);}.cls-27{fill:url(#linear-gradient-26);}.cls-28{fill:url(#linear-gradient-27);}</style><linearGradient id="linear-gradient" x1="72.03" y1="70.48" x2="75.07" y2="70.48" gradientUnits="userSpaceOnUse"><stop offset="0" stop-color="#5954c0"/><stop offset="1" stop-color="#1e0f78"/></linearGradient><linearGradient id="linear-gradient-2" x1="84.85" y1="74.37" x2="91.29" y2="74.37" xlink:href="#linear-gradient"/><linearGradient id="linear-gradient-3" x1="94.23" y1="85" x2="103.17" y2="85" xlink:href="#linear-gradient"/><linearGradient id="linear-gradient-4" x1="97.67" y1="99.52" x2="107.51" y2="99.52" xlink:href="#linear-gradient"/><linearGradient id="linear-gradient-5" x1="94.24" y1="114.05" x2="103.17" y2="114.05" xlink:href="#linear-gradient"/><linearGradient id="linear-gradient-6" x1="84.85" y1="124.68" x2="91.29" y2="124.68" xlink:href="#linear-gradient"/><linearGradient id="linear-gradient-7" x1="72.03" y1="128.57" x2="75.07" y2="128.57" xlink:href="#linear-gradient"/><linearGradient id="linear-gradient-8" x1="79.84" y1="69.28" x2="83.46" y2="69.28" xlink:href="#linear-gradient"/><linearGradient id="linear-gradient-9" x1="93.37" y1="77.38" x2="98.01" y2="77.38" xlink:href="#linear-gradient"/><linearGradient id="linear-gradient-10" x1="101.18" y1="91.42" x2="106.41" y2="91.42" xlink:href="#linear-gradient"/><linearGradient id="linear-gradient-11" x1="101.18" y1="107.63" x2="106.41" y2="107.63" xlink:href="#linear-gradient"/><linearGradient id="linear-gradient-12" x1="93.37" y1="121.66" x2="98.01" y2="121.66" xlink:href="#linear-gradient"/><linearGradient id="linear-gradient-13" x1="79.84" y1="129.77" x2="83.46" y2="129.77" xlink:href="#linear-gradient"/><linearGradient id="linear-gradient-14" x1="59.21" y1="93.65" x2="80.81" y2="93.65" xlink:href="#linear-gradient"/><linearGradient id="linear-gradient-15" x1="55.8" y1="74.37" x2="62.25" y2="74.37" xlink:href="#linear-gradient"/><linearGradient id="linear-gradient-16" x1="43.93" y1="85" x2="52.86" y2="85" xlink:href="#linear-gradient"/><linearGradient id="linear-gradient-17" x1="39.58" y1="99.52" x2="49.42" y2="99.52" xlink:href="#linear-gradient"/><linearGradient id="linear-gradient-18" x1="43.93" y1="114.05" x2="52.86" y2="114.05" xlink:href="#linear-gradient"/><linearGradient id="linear-gradient-19" x1="55.8" y1="124.68" x2="62.25" y2="124.68" xlink:href="#linear-gradient"/><linearGradient id="linear-gradient-20" x1="63.63" y1="69.28" x2="67.26" y2="69.28" xlink:href="#linear-gradient"/><linearGradient id="linear-gradient-21" x1="49.08" y1="77.38" x2="53.73" y2="77.38" xlink:href="#linear-gradient"/><linearGradient id="linear-gradient-22" x1="40.69" y1="91.42" x2="45.92" y2="91.42" xlink:href="#linear-gradient"/><linearGradient id="linear-gradient-23" x1="40.69" y1="107.63" x2="45.92" y2="107.63" xlink:href="#linear-gradient"/><linearGradient id="linear-gradient-24" x1="49.08" y1="121.66" x2="53.73" y2="121.66" xlink:href="#linear-gradient"/><linearGradient id="linear-gradient-25" x1="63.63" y1="129.77" x2="67.26" y2="129.77" xlink:href="#linear-gradient"/><linearGradient id="linear-gradient-26" x1="34.31" y1="99.52" x2="112.78" y2="99.52" xlink:href="#linear-gradient"/><linearGradient id="linear-gradient-27" x1="27.16" y1="99.52" x2="119.94" y2="99.52" xlink:href="#linear-gradient"/></defs><title>clock</title><g id="Layer_2" data-name="Layer 2"><g id="Layer_1-2" data-name="Layer 1"><path class="cls-1" d="M52.49,73q-.43-.92-.88-1.81A3.86,3.86,0,0,0,52.49,73Z"/><path class="cls-1" d="M72,76.34a4.76,4.76,0,0,0-.3-.39A.87.87,0,0,0,72,76.34Z"/><path class="cls-1" d="M.21,37.52l0-.09c-.12-.31-.13-.56-.25-.86Z"/><path class="cls-1" d="M54.57,89.73v0s0,0,0,0Z"/><path class="cls-1" d="M57,71.56c0,.46.07,1,.13,1.53Z"/><path class="cls-1" d="M55.74,96.2c-.53.2-1,.37-1.51.53v0Z"/><path class="cls-1" d="M54.23,96.9v-.13h0Z"/><path class="cls-1" d="M54.27,95.86l0,.37C55,95.91,54.78,95.88,54.27,95.86Z"/><path class="cls-1" d="M54.25,96.3v.43h0c0-.2,0-.36,0-.49h0Z"/><path class="cls-1" d="M161.49,82.75c-23.46-17.7-.5-36.63-26-47.66C103.84,21.38,93.37,80.3,86.22,87.59q2.54-2,3.73,2c-12.77.05,5.46,17.83,5.38,17.81-8.46-9.38-17.1-4.61-21.79-3.17A71.21,71.21,0,0,1,74,91.75c-4.49,15.06-4.19-7.29-8-6.59a9.26,9.26,0,0,1,3.57,2.74q-1.79-2.31-.6-1a11.32,11.32,0,0,0-2.31-2.73c6.65,4.55.2-9.39-.08-11.76,6.77,12.6,1.33,0,3.68,8.47-1.25-1.87.7-7.37.51-8.29q1.6,3.38-.6-5.06C68.23,62,74,79.67,74.49,76.35a15.12,15.12,0,0,0,.07-9.18c2.28-.72,1.56,18.37,2.89-.18q-4,9,2,6.12C83.46,58.26,130,23,101.16.83,95.37-3.63,37.37,11.38,37.63,11.2,9,30.71,18.89,76.19,2.8,97.78l5.87-.39c-4.12,3.78-6.22,15.49-7.92,19.37,7.35,2.5.11,22.15,2.11,21.19q5.79,7.12,13.84.42c2,3.91.42,6.09-.94,10.28,9.44-9.85,12.68,15.79,19.59-4.4a13.37,13.37,0,0,0-.2,9.07l2.8-6.45C51.27,159.49,27.23,165.07,53.53,169c7.24,1.08,16.83-2.71,24.43-3.51a60.83,60.83,0,0,0,14-3.57c3.52-1.25,22.27-11.5,22.59-2.42a37.22,37.22,0,0,0-2.15-11.22C113.77,148.86,163.79,89.19,161.49,82.75ZM60.39,108.07ZM147,59.1v0Z"/><path class="cls-1" d="M52,99.54l.07,0a2.49,2.49,0,0,0,.24-.43Z"/><path class="cls-1" d="M54.27,95.86c0-.08,0-.1,0-.06v.06Z"/><path class="cls-1" d="M79.42,52.15V52A.36.36,0,0,0,79.42,52.15Z"/><path class="cls-2" d="M73.55,75.4a1.52,1.52,0,0,0,1.52-1.52v-6.8a1.52,1.52,0,0,0-3,0v6.8A1.52,1.52,0,0,0,73.55,75.4Z"/><path class="cls-3" d="M90.53,70.11a1.52,1.52,0,0,0-2.08.56l-3.4,5.89a1.52,1.52,0,1,0,2.63,1.52l3.4-5.89A1.52,1.52,0,0,0,90.53,70.11Z"/><path class="cls-4" d="M94.44,87.46a1.52,1.52,0,0,0,2.08.56l5.89-3.4A1.52,1.52,0,1,0,100.89,82L95,85.39A1.52,1.52,0,0,0,94.44,87.46Z"/><path class="cls-5" d="M106,98h-6.8a1.52,1.52,0,1,0,0,3H106a1.52,1.52,0,1,0,0-3Z"/><path class="cls-6" d="M102.41,114.43,96.52,111A1.52,1.52,0,0,0,95,113.66l5.89,3.4a1.52,1.52,0,0,0,1.52-2.63Z"/><path class="cls-7" d="M87.68,121a1.52,1.52,0,1,0-2.63,1.52l3.4,5.89a1.52,1.52,0,1,0,2.63-1.52Z"/><path class="cls-8" d="M73.55,123.65A1.52,1.52,0,0,0,72,125.17V132a1.52,1.52,0,1,0,3,0v-6.8A1.52,1.52,0,0,0,73.55,123.65Z"/><path class="cls-9" d="M82.34,66.72a1.52,1.52,0,0,0-1.86,1.08L79.89,70a1.52,1.52,0,1,0,2.94.79l.59-2.19A1.52,1.52,0,0,0,82.34,66.72Z"/><path class="cls-10" d="M94.89,79.7A1.51,1.51,0,0,0,96,79.26l1.6-1.6a1.52,1.52,0,1,0-2.15-2.15l-1.6,1.6a1.52,1.52,0,0,0,1.07,2.59Z"/><path class="cls-11" d="M101.23,92.11a1.52,1.52,0,0,0,1.47,1.13,1.54,1.54,0,0,0,.4-.05l2.19-.59a1.52,1.52,0,0,0-.79-2.94l-2.19.59A1.52,1.52,0,0,0,101.23,92.11Z"/><path class="cls-12" d="M105.28,106.45l-2.19-.59a1.52,1.52,0,0,0-.79,2.94l2.19.59a1.55,1.55,0,0,0,.4.05,1.52,1.52,0,0,0,.39-3Z"/><path class="cls-13" d="M96,119.79a1.52,1.52,0,1,0-2.15,2.15l1.6,1.6a1.52,1.52,0,1,0,2.15-2.15Z"/><path class="cls-14" d="M82.83,128.28a1.52,1.52,0,1,0-2.94.79l.59,2.19a1.52,1.52,0,1,0,2.94-.79Z"/><path class="cls-15" d="M75.07,92.43V82a1.52,1.52,0,1,0-3,0v10.4A7.28,7.28,0,0,0,66.45,98H60.73a1.52,1.52,0,0,0,0,3h5.72a7.26,7.26,0,1,0,8.62-8.62Zm-1.52,11.32a4.22,4.22,0,1,1,4.22-4.22A4.23,4.23,0,0,1,73.55,103.74Z"/><path class="cls-16" d="M59.41,78.08A1.52,1.52,0,1,0,62,76.56l-3.4-5.89A1.52,1.52,0,1,0,56,72.18Z"/><path class="cls-17" d="M44.69,84.62,50.58,88a1.52,1.52,0,1,0,1.52-2.63L46.21,82a1.52,1.52,0,1,0-1.52,2.63Z"/><path class="cls-18" d="M47.9,101a1.52,1.52,0,1,0,0-3H41.1a1.52,1.52,0,0,0,0,3Z"/><path class="cls-19" d="M52.65,111.59a1.52,1.52,0,0,0-2.08-.56l-5.89,3.4a1.52,1.52,0,0,0,1.52,2.63l5.89-3.4A1.52,1.52,0,0,0,52.65,111.59Z"/><path class="cls-20" d="M61.49,120.42a1.52,1.52,0,0,0-2.08.56L56,126.86a1.52,1.52,0,1,0,2.63,1.52l3.4-5.89A1.52,1.52,0,0,0,61.49,120.42Z"/><path class="cls-21" d="M64.27,70.77A1.52,1.52,0,1,0,67.2,70l-.59-2.19a1.52,1.52,0,1,0-2.94.79Z"/><path class="cls-22" d="M51.68,75.51a1.52,1.52,0,1,0-2.15,2.15l1.6,1.6a1.52,1.52,0,1,0,2.15-2.15Z"/><path class="cls-23" d="M41.81,92.59l2.19.59a1.54,1.54,0,0,0,.4.05,1.52,1.52,0,0,0,.39-3l-2.19-.59a1.52,1.52,0,0,0-.79,2.94Z"/><path class="cls-24" d="M45.86,106.94A1.52,1.52,0,0,0,44,105.87l-2.19.59a1.52,1.52,0,0,0,.39,3,1.55,1.55,0,0,0,.4-.05l2.19-.59A1.52,1.52,0,0,0,45.86,106.94Z"/><path class="cls-25" d="M51.13,119.79l-1.6,1.6a1.52,1.52,0,0,0,2.15,2.15l1.6-1.6a1.52,1.52,0,1,0-2.15-2.15Z"/><path class="cls-26" d="M66.13,127.21a1.52,1.52,0,0,0-1.86,1.08l-.59,2.19a1.52,1.52,0,1,0,2.94.79l.59-2.19A1.52,1.52,0,0,0,66.13,127.21Z"/><path class="cls-27" d="M73.55,60.29a39.23,39.23,0,1,0,39.24,39.23A39.28,39.28,0,0,0,73.55,60.29Zm0,75.43a36.19,36.19,0,1,1,36.2-36.19A36.24,36.24,0,0,1,73.55,135.72Z"/><path class="cls-28" d="M73.55,53.13a46.39,46.39,0,1,0,46.39,46.39A46.44,46.44,0,0,0,73.55,53.13Zm0,89.74A43.35,43.35,0,1,1,116.9,99.52,43.4,43.4,0,0,1,73.55,142.88Z"/></g></g></svg>