<svg xmlns="http://www.w3.org/2000/svg" xmlns:xlink="http://www.w3.org/1999/xlink" viewBox="0 0 159.94 145.46"><defs><style>.cls-1{fill:#f4ecf7;}.cls-2{fill:url(#linear-gradient);}.cls-3{fill:url(#linear-gradient-2);}.cls-4{fill:url(#linear-gradient-3);}.cls-5{fill:url(#linear-gradient-4);}.cls-6{fill:url(#linear-gradient-5);}.cls-7{fill:url(#linear-gradient-6);}.cls-8{fill:url(#linear-gradient-7);}.cls-9{fill:url(#linear-gradient-8);}.cls-10{fill:url(#linear-gradient-9);}</style><linearGradient id="linear-gradient" x1="77.93" y1="85.92" x2="123.97" y2="85.92" gradientUnits="userSpaceOnUse"><stop offset="0" stop-color="#5954c0"/><stop offset="1" stop-color="#1e0f78"/></linearGradient><linearGradient id="linear-gradient-2" x1="49.04" y1="68.16" x2="128.87" y2="68.16" xlink:href="#linear-gradient"/><linearGradient id="linear-gradient-3" x1="66.91" y1="40.01" x2="93.03" y2="40.01" xlink:href="#linear-gradient"/><linearGradient id="linear-gradient-4" x1="58.16" y1="51.27" x2="85.62" y2="51.27" xlink:href="#linear-gradient"/><linearGradient id="linear-gradient-5" x1="63.11" y1="62.53" x2="86.95" y2="62.53" xlink:href="#linear-gradient"/><linearGradient id="linear-gradient-6" x1="55.12" y1="73.79" x2="77.35" y2="73.79" xlink:href="#linear-gradient"/><linearGradient id="linear-gradient-7" x1="67.1" y1="85.05" x2="80.68" y2="85.05" xlink:href="#linear-gradient"/><linearGradient id="linear-gradient-8" x1="58.16" y1="96.31" x2="75.26" y2="96.31" xlink:href="#linear-gradient"/><linearGradient id="linear-gradient-9" x1="92.36" y1="86.89" x2="110.99" y2="86.89" xlink:href="#linear-gradient"/></defs><title>coins_1</title><g id="Layer_2" data-name="Layer 2"><g id="Layer_1-2" data-name="Layer 1"><path class="cls-1" d="M158,88.66c-1.2-2.66-6.24-2.77-5.75-6.07.33-2.23,4-2.7,6.06-4.27a.72.72,0,0,0-.39-1.27c-8-1-6.18-22.33-16.91-19.9a.71.71,0,0,1-.7-1.17c.7-.77,1.09-1.58.66-2.34a.72.72,0,0,0-.32-.28,3.82,3.82,0,0,0-4.85.76.72.72,0,0,1-1.24-.38c-1.05-7.21,1-5.33,5.14-10.63,1.2-1.53,3.73-.61,5-2.79C146.46,37.2,142,30,140.56,27.88,136.37,21.65,112.11,14.06,109.2.55a.71.71,0,0,0-1.14-.39C95.29,10.13,75.56,4.37,62.9,7.1c-6.13,1.32-11.44,3.16-17.79,2.77-2.83-.17-11.81,0-9,2C48.18,20.46,31,16.62,31,16.73c-1.81,7.43-9.11,5-14.17,11.83C10.49,37,.57,39.63,0,50.7-.79,67.49,15.71,77.25,30.14,73.45c-2.15,1.56-3.2,3.06-1,3.85a.71.71,0,0,1,.08,1.3l0,0a.71.71,0,0,0,.05,1.28,6.58,6.58,0,0,1,3.34,3.76,3.53,3.53,0,0,1-1.19-1,.79.79,0,0,0-1.16-.16l-.08.05a.75.75,0,0,0-.21,1.1c.12.18.25.36.38.53-6.43-6.76-5.62-3.68-7.79-3.44C16,81.45,10.82,83.86,9.75,91.29c-2.58,18,24.35,27.81,34.2,37.48,5.66,5.55,7.63,13.93,15.3,16.24,7.05,2.12,17-3.8,23.58-6.07,13.78-4.72,27-3.92,41.25-5.46a.73.73,0,0,0,.55-1.07c-3-5.74,10-6,15.5-11.71,4.89-5.08,9.94-11.36,14.64-16.67C160.5,97.54,161.33,96.14,158,88.66Zm-55.17,15.41c-12.06,0-17.17-8.33-17.17-20.39s8.94-22.52,21-22.52,20,10.46,20,22.52S114.85,104.07,102.79,104.07Z"/><path class="cls-2" d="M101,108.94a23,23,0,1,1,23-23A23,23,0,0,1,101,108.94Zm0-43.29a20.27,20.27,0,1,0,20.28,20.28A20.3,20.3,0,0,0,101,65.65Z"/><path class="cls-3" d="M127.5,108.94h-71a4.42,4.42,0,0,1-4.41-4.41V99.35a4.42,4.42,0,0,1,3.42-4.3,4.39,4.39,0,0,1-.38-1.78V88.09a4.39,4.39,0,0,1,.38-1.78A4.42,4.42,0,0,1,52.08,82V76.83A4.39,4.39,0,0,1,52.46,75,4.42,4.42,0,0,1,49,70.75V65.57a4.42,4.42,0,0,1,3.42-4.3,4.39,4.39,0,0,1-.38-1.78V54.31A4.42,4.42,0,0,1,55.5,50a4.39,4.39,0,0,1-.38-1.78V43a4.39,4.39,0,0,1,.38-1.78A4.42,4.42,0,0,1,52.08,37V31.79a4.42,4.42,0,0,1,4.41-4.41H91.66a4.42,4.42,0,0,1,4.41,4.41V37a4.39,4.39,0,0,1-.38,1.78A4.42,4.42,0,0,1,99.12,43v5.18a4.42,4.42,0,0,1-3.42,4.3,4.39,4.39,0,0,1,.38,1.78v4a1.37,1.37,0,0,1-2.74,0v-4a1.67,1.67,0,0,0-1.67-1.67,1.37,1.37,0,1,1,0-2.74h3a1.67,1.67,0,0,0,1.67-1.67V43a1.67,1.67,0,0,0-1.67-1.67h-3a1.37,1.37,0,1,1,0-2.74A1.67,1.67,0,0,0,93.33,37V31.79a1.67,1.67,0,0,0-1.67-1.67H56.49a1.67,1.67,0,0,0-1.67,1.67V37a1.67,1.67,0,0,0,1.67,1.67h3a1.37,1.37,0,0,1,0,2.74A1.67,1.67,0,0,0,57.86,43v5.18a1.67,1.67,0,0,0,1.67,1.67,1.37,1.37,0,0,1,0,2.74h-3a1.67,1.67,0,0,0-1.67,1.67v5.18a1.67,1.67,0,0,0,1.67,1.67,1.37,1.37,0,0,1,0,2.74h-3a1.67,1.67,0,0,0-1.67,1.67v5.18a1.67,1.67,0,0,0,1.67,1.67h3a1.37,1.37,0,0,1,0,2.74,1.67,1.67,0,0,0-1.67,1.67V82a1.67,1.67,0,0,0,1.67,1.67h3a1.37,1.37,0,0,1,0,2.74,1.67,1.67,0,0,0-1.67,1.67v5.18a1.67,1.67,0,0,0,1.67,1.67,1.37,1.37,0,0,1,0,2.74h-3a1.67,1.67,0,0,0-1.67,1.67v5.18a1.67,1.67,0,0,0,1.67,1.67h71a1.37,1.37,0,0,1,0,2.74Z"/><path class="cls-4" d="M91.66,41.38H68.28a1.37,1.37,0,0,1,0-2.74H91.66a1.37,1.37,0,0,1,0,2.74Z"/><path class="cls-5" d="M84.25,52.64H59.53a1.37,1.37,0,1,1,0-2.74H84.25a1.37,1.37,0,1,1,0,2.74Z"/><path class="cls-6" d="M85.58,63.9H64.48a1.37,1.37,0,1,1,0-2.74h21.1a1.37,1.37,0,1,1,0,2.74Z"/><path class="cls-7" d="M76,75.16H56.49a1.37,1.37,0,1,1,0-2.74H76a1.37,1.37,0,1,1,0,2.74Z"/><path class="cls-8" d="M79.31,86.42H68.47a1.37,1.37,0,0,1,0-2.74H79.31a1.37,1.37,0,1,1,0,2.74Z"/><path class="cls-9" d="M73.89,97.68H59.53a1.37,1.37,0,1,1,0-2.74H73.89a1.37,1.37,0,1,1,0,2.74Z"/><path class="cls-10" d="M109.23,84.11A6.16,6.16,0,0,0,111,79.55c0-7.14-10.06-7.14-13.36-7.14a1.35,1.35,0,0,0-1.35,1.35V84.13H93.71a1.35,1.35,0,0,0,0,2.71h2.57v4.62H93.71a1.35,1.35,0,1,0,0,2.71h2.56V100A1.35,1.35,0,0,0,99,100V94.16h2.69a1.35,1.35,0,1,0,0-2.71H99V86.83C103.27,86.75,107,86.28,109.23,84.11ZM99,75.14c8.3.23,9.3,2.6,9.3,4.41a3.51,3.51,0,0,1-1,2.64c-1.5,1.49-4.73,1.86-8.34,1.93Z"/></g></g></svg>