<svg xmlns="http://www.w3.org/2000/svg" xmlns:xlink="http://www.w3.org/1999/xlink" viewBox="0 0 73.31 75.15"><defs><style>.cls-1{fill:#ffcc5b;}.cls-2{fill:url(#linear-gradient);}.cls-3{fill:url(#linear-gradient-2);}.cls-4{fill:url(#linear-gradient-3);}.cls-5{fill:url(#linear-gradient-4);}.cls-6{fill:#909aa3;}</style><linearGradient id="linear-gradient" x1="36.27" y1="4.33" x2="38.36" y2="4.33" gradientUnits="userSpaceOnUse"><stop offset="0" stop-color="#5954c0"/><stop offset="1" stop-color="#1e0f78"/></linearGradient><linearGradient id="linear-gradient-2" x1="29.65" y1="28.01" x2="32.02" y2="28.01" xlink:href="#linear-gradient"/><linearGradient id="linear-gradient-3" x1="30.02" y1="60.12" x2="32.06" y2="60.12" xlink:href="#linear-gradient"/><linearGradient id="linear-gradient-4" x1="24.63" y1="37.57" x2="51.83" y2="37.57" xlink:href="#linear-gradient"/></defs><title>colors</title><g id="Layer_2" data-name="Layer 2"><g id="Layer_1-2" data-name="Layer 1"><path class="cls-1" d="M10.14,8.56c-.48,0-.84-.48-.84-1.13s.36-1.13.84-1.13.84.48.84,1.13S10.62,8.56,10.14,8.56Z"/><path class="cls-1" d="M5,34.67c-.49,0-.95,0-.95-8.32S4.48,18,5,18s.95,0,.95,8.32S5.45,34.67,5,34.67Z"/><path class="cls-1" d="M5.12,58c-.51,0-.82,0-.82-6s.31-6,.82-6,.82,0,.82,6S5.63,58,5.12,58Z"/><path class="cls-1" d="M21.34,59.28c0-.18,0-.47,0-.85v0h0c0-2.38,0-8.37,0-14.66V42.11l0,0h0c0-5.94,0-12.35,0-17.43,0-2.78,0-5.16,0-6.85,0-1.24,0-2,0-2.51a2.37,2.37,0,0,0,.11-2c-.7-1.92-3.64-3.56-6.31-4.51l-.21-2.75A1.63,1.63,0,0,0,14.43,5,4.76,4.76,0,0,0,11,4,4,4,0,0,0,7.56,5.44a1,1,0,0,0-.24.6L7.19,8.79c-2.5.84-5.48,2.19-6.4,4.06a2.59,2.59,0,0,0-.16,2v44a1.66,1.66,0,0,0-.55,1.82C.86,62.84,6.9,64,11,64c3.61,0,9.69-.82,10.65-3A1.65,1.65,0,0,0,21.34,59.28ZM11,5.25c1.65,0,2.21.36,2.56.69a.35.35,0,0,1,.11.23l.23,3c-.16.23-.86.68-2.72.68s-2.51-.21-2.72-.71l.15-3A2.7,2.7,0,0,1,11,5.25Zm-9,8.16C2.5,12.27,4.52,11.05,7.5,10c.71,1,2.25,1.09,3.68,1.09,2.2,0,3.19-.57,3.64-1.06,2.83,1,5,2.48,5.44,3.7a1.09,1.09,0,0,1-.1,1v0h0c-.39.67-3.82,1.87-9.28,1.87-5,0-8.46-1.67-9-2.26A1.32,1.32,0,0,1,1.95,13.41ZM20.1,36.08c-.44.57-4.2,2.2-9.12,2.2-5.6,0-9.07-1.52-9.07-2.5V16a19.84,19.84,0,0,0,9,2c3.89,0,7.41-.63,9.23-1.57C20.13,19.42,20.12,27.8,20.1,36.08Zm0,22.22h0c-.23.56-3.08,2.64-9,2.64-6.17,0-8.91-2-9.12-2.54V43.11C3.78,44.39,7.4,45.39,11,45.39a18.55,18.55,0,0,0,9.1-2v.38C20.06,52.53,20,56.49,20.07,58.31ZM11,44.11c-5.27,0-9-2.06-9.07-2.77V37.68C3.76,38.9,7.36,39.56,11,39.56a21.26,21.26,0,0,0,9.12-2q0,2.11,0,4.14C19.41,42.54,16.21,44.11,11,44.11ZM20.44,60.5c-.46,1-4.69,2.24-9.48,2.24S1.69,61.32,1.29,60.2c0-.12,0-.27.2-.44C2.91,61,6.09,62.23,11,62.23c4.51,0,7.62-1.15,9.17-2.3l0,0C20.53,60.28,20.47,60.43,20.44,60.5Z"/><path class="cls-2" d="M37.31,5.74c-.6,0-1-.61-1-1.41s.45-1.41,1-1.41,1,.61,1,1.41S37.91,5.74,37.31,5.74Z"/><path class="cls-3" d="M30.84,38.42c-.61,0-1.19,0-1.19-10.41s.58-10.41,1.19-10.41S32,17.6,32,28,31.45,38.42,30.84,38.42Z"/><path class="cls-4" d="M31,67.65c-.64,0-1,0-1-7.53s.38-7.53,1-7.53,1,0,1,7.53S31.67,67.65,31,67.65Z"/><path class="cls-5" d="M51.33,69.22c0-.22,0-.59,0-1.07v0h0c0-3,0-10.48,0-18.34v-2l0,0h0c0-7.43,0-15.45,0-21.81,0-3.48,0-6.46,0-8.57,0-1.56,0-2.53-.06-3.14a3,3,0,0,0,.14-2.45c-.88-2.4-4.56-4.46-7.89-5.65l-.26-3.44a2,2,0,0,0-.64-1.34C41.72.38,40.35,0,38.37,0a5,5,0,0,0-4.28,1.83,1.28,1.28,0,0,0-.3.76L33.62,6c-3.13,1-6.86,2.74-8,5.08a3.24,3.24,0,0,0-.2,2.49v55a2.08,2.08,0,0,0-.69,2.27c1,2.77,8.52,4.25,13.61,4.25,4.51,0,12.12-1,13.33-3.77A2.06,2.06,0,0,0,51.33,69.22ZM38.38,1.6c2.06,0,2.77.45,3.2.86a.44.44,0,0,1,.14.29L42,6.51c-.21.29-1.08.85-3.4.85-2.15,0-3.14-.26-3.41-.88l.18-3.7C35.76,2.34,36.4,1.62,38.38,1.6ZM27.06,11.81c.7-1.43,3.23-2.95,6.95-4.21C34.9,8.83,36.82,9,38.61,9c2.75,0,4-.71,4.55-1.33,3.54,1.28,6.25,3.1,6.81,4.63a1.37,1.37,0,0,1-.12,1.27v0h0c-.48.84-4.78,2.35-11.61,2.35-6.21,0-10.59-2.09-11.29-2.83A1.65,1.65,0,0,1,27.06,11.81ZM49.78,40.18c-.54.72-5.26,2.75-11.41,2.75C31.36,42.94,27,41,27,39.8V15.06a24.82,24.82,0,0,0,11.21,2.44c4.87,0,9.28-.79,11.55-2C49.82,19.33,49.81,29.81,49.78,40.18Zm0,27.81h0c-.29.7-3.86,3.3-11.31,3.3-7.73,0-11.15-2.56-11.41-3.18V49c2.33,1.61,6.86,2.86,11.35,2.86,4.92,0,9.14-1.15,11.39-2.54v.48C49.72,60.77,49.71,65.72,49.75,68ZM38.37,50.23c-6.6,0-11.22-2.58-11.35-3.47V42.18c2.31,1.53,6.81,2.36,11.35,2.36,4.31,0,9-1.11,11.41-2.44q0,2.64,0,5.18C48.91,48.26,44.91,50.23,38.37,50.23ZM50.2,70.74c-.57,1.3-5.87,2.81-11.86,2.81-5.81,0-11.61-1.78-12.09-3.17-.05-.15,0-.34.25-.55,1.77,1.52,5.75,3.08,11.94,3.08,5.64,0,9.54-1.44,11.48-2.88l0,0C50.32,70.47,50.24,70.66,50.2,70.74Z"/><path class="cls-6" d="M62.65,9.63c-.44,0-.77-.44-.77-1s.33-1,.77-1,.77.44.77,1S63.09,9.63,62.65,9.63Z"/><path class="cls-6" d="M57.9,33.62c-.45,0-.87,0-.87-7.64s.42-7.64.87-7.64.87,0,.87,7.64S58.35,33.62,57.9,33.62Z"/><path class="cls-6" d="M58,55.08c-.47,0-.75,0-.75-5.53S57.58,44,58,44s.75,0,.75,5.53S58.51,55.08,58,55.08Z"/><path class="cls-6" d="M72.94,56.23c0-.16,0-.43,0-.78v0h0c0-2.18,0-7.69,0-13.46V40.43h0c0-5.45,0-11.34,0-16,0-2.55,0-4.74,0-6.29,0-1.14,0-1.86,0-2.3a2.18,2.18,0,0,0,.1-1.8c-.64-1.77-3.35-3.27-5.79-4.14l-.19-2.52a1.5,1.5,0,0,0-.47-1,4.38,4.38,0,0,0-3.17-1,3.66,3.66,0,0,0-3.14,1.35.94.94,0,0,0-.22.55l-.13,2.52c-2.3.77-5,2-5.87,3.73a2.38,2.38,0,0,0-.15,1.83v40.4a1.53,1.53,0,0,0-.5,1.67c.71,2,6.26,3.12,10,3.12,3.31,0,8.9-.75,9.78-2.76A1.51,1.51,0,0,0,72.94,56.23ZM63.44,6.6c1.51,0,2,.33,2.35.63a.33.33,0,0,1,.1.21l.21,2.75c-.15.21-.79.63-2.49.63s-2.31-.19-2.5-.65l.14-2.71A2.48,2.48,0,0,1,63.44,6.6Zm-8.31,7.49c.51-1,2.37-2.16,5.1-3.09.65.91,2.06,1,3.38,1,2,0,2.93-.52,3.34-1,2.6.94,4.59,2.28,5,3.4a1,1,0,0,1-.09.93h0c-.36.62-3.51,1.72-8.52,1.72-4.56,0-7.77-1.53-8.29-2.08A1.21,1.21,0,0,1,55.13,14.09ZM71.8,34.92c-.4.53-3.86,2-8.38,2-5.15,0-8.33-1.4-8.33-2.3V16.48a18.22,18.22,0,0,0,8.23,1.79c3.58,0,6.81-.58,8.48-1.44C71.83,19.61,71.82,27.3,71.8,34.92Zm0,20.41h0c-.21.51-2.83,2.42-8.3,2.42-5.67,0-8.18-1.88-8.38-2.33V41.37a16.15,16.15,0,0,0,8.33,2.1,17,17,0,0,0,8.36-1.87V42C71.76,50,71.75,53.66,71.78,55.33Zm-8.35-13c-4.84,0-8.24-1.89-8.33-2.54V36.38c1.7,1.12,5,1.73,8.33,1.73a19.53,19.53,0,0,0,8.37-1.79q0,1.94,0,3.8C71.17,40.84,68.23,42.29,63.43,42.29Zm8.69,15.05c-.42,1-4.31,2.06-8.7,2.06s-8.52-1.3-8.88-2.33c0-.11,0-.25.18-.41,1.3,1.12,4.22,2.26,8.76,2.26,4.14,0,7-1.06,8.43-2.11l0,0C72.2,57.14,72.14,57.28,72.11,57.34Z"/></g></g></svg>