<?xml version="1.0" encoding="utf-8"?>
<!-- Generator: Adobe Illustrator 21.0.1, SVG Export Plug-In . SVG Version: 6.00 Build 0)  -->
<svg version="1.1" id="Layer_1" xmlns="http://www.w3.org/2000/svg" xmlns:xlink="http://www.w3.org/1999/xlink" x="0px" y="0px"
	 viewBox="0 0 150.1 159.6" style="enable-background:new 0 0 150.1 159.6;" xml:space="preserve">
<style type="text/css">
	.st0{fill:#F4ECF7;}
	.st1{fill:url(#SVGID_1_);}
	.st2{fill:url(#SVGID_2_);}
	.st3{fill:url(#SVGID_3_);}
	.st4{fill:url(#SVGID_4_);}
	.st5{fill:url(#SVGID_5_);}
	.st6{fill:url(#SVGID_6_);}
	.st7{fill:url(#SVGID_7_);}
</style>
<title>delivery_1</title>
<g id="Layer_2">
	<g id="Layer_1-2">
		<path class="st0" d="M150.1,113.1c-0.5-13-5.3-17-10.1-27.4c-4.7-10,7.7-28.9,3.5-37.8c-8.2-17-16.5,3.3-21.7-17
			c-2.8-11.1,3.8-8.1,1.7-20.5C119-15.4,93.3,15.1,73,13.9c-27.6-1.6-39.7-23.5-58.2,4.5c-5.9,9-4.4,17.7-10.6,22.6s0,14.2,5.7,20.4
			c2.1,2.2,2,5.7-0.2,7.9c-8.8,8.4-18.5,31.7,4.7,49.6c2.7,13.4,7.9-2.1,8.6-2.6c4.1,6.6-9.8,12.9-1.4,20.5c7.7,7,49.1,0.4,58.8,2.3
			c1.9,0.4,30.7,8.5,35,20.3c-8.3-22.7,2.6-23.6,3-25.7C131.7,147.8,150.7,135.2,150.1,113.1z M62.1,58.8c0,0,1.2-8.2,0.2-24.2
			l23.8-0.1l0.2,23.9l-12.2-7.7L62.1,58.8z M91.4,106.8c0.2,0.1,0.4,0.3,0.6,0.5C91.8,107.1,91.6,107,91.4,106.8L91.4,106.8z"/>
		
			<linearGradient id="SVGID_1_" gradientUnits="userSpaceOnUse" x1="79.25" y1="84.1795" x2="109.21" y2="84.1795" gradientTransform="matrix(1 0 0 -1 0 160)">
			<stop  offset="0" style="stop-color:#5954C0"/>
			<stop  offset="1" style="stop-color:#1E0F78"/>
		</linearGradient>
		<path class="st1" d="M80.8,89.9c-0.9,0-1.6-0.8-1.5-1.6c0-0.5,0.3-1,0.7-1.3l25.9-16.6c0.5-1.8-0.2-3.8-1.9-4.8
			c-1-0.6-2.3-0.8-3.5-0.4c-0.9,0.2-1.7-0.4-1.9-1.2c-0.2-0.7,0.2-1.5,0.9-1.8c3.9-1.3,8.1,0.9,9.3,4.8c0.5,1.7,0.5,3.5-0.2,5.1
			c-0.1,0.3-0.3,0.6-0.6,0.7L81.7,89.6C81.4,89.8,81.1,89.9,80.8,89.9z"/>
		
			<linearGradient id="SVGID_2_" gradientUnits="userSpaceOnUse" x1="28.1999" y1="72.3987" x2="117.8674" y2="72.3987" gradientTransform="matrix(1 0 0 -1 0 160)">
			<stop  offset="0" style="stop-color:#5954C0"/>
			<stop  offset="1" style="stop-color:#1E0F78"/>
		</linearGradient>
		<path class="st2" d="M44.2,106.4h-0.1c-0.5,0-0.9-0.3-1.1-0.6l-0.1-0.2L28.5,87.4c-0.5-0.6-0.4-1.4,0.1-2
			C41,71.6,57.1,70.6,68.4,72.2c7,1,12.6,6.4,13.8,13.3L106.3,70c3.4-2.3,8-1.3,10.3,2.1c2.3,3.4,1.3,8-2.1,10.3l-27,18.4
			c-1.6,1.1-3.5,1.7-5.5,1.7l-29.8,0.1c-2.3,0-4.5,0.9-6.1,2.5l-0.9,0.9C45,106.2,44.6,106.4,44.2,106.4z M31.9,86.5l12.5,16
			c2.2-1.9,5-3,7.9-3l29.8-0.1c1.3,0,2.6-0.4,3.7-1.2l27-18.4c1.9-1.4,2.4-4,1-5.9c-1.3-1.8-3.8-2.3-5.7-1.2L81.7,89.6
			c-0.7,0.5-1.7,0.2-2.2-0.5c-0.2-0.3-0.2-0.5-0.2-0.8c0-6.5-4.8-12-11.3-12.9C57.7,73.9,43.2,74.7,31.9,86.5z"/>
		
			<linearGradient id="SVGID_3_" gradientUnits="userSpaceOnUse" x1="57.41" y1="71.73" x2="82.42" y2="71.73" gradientTransform="matrix(1 0 0 -1 0 160)">
			<stop  offset="0" style="stop-color:#5954C0"/>
			<stop  offset="1" style="stop-color:#1E0F78"/>
		</linearGradient>
		<path class="st3" d="M80.8,89.9H59c-0.9,0-1.6-0.7-1.6-1.6c0-0.9,0.7-1.6,1.6-1.6h21.8c0.9,0,1.6,0.7,1.6,1.6
			C82.4,89.1,81.7,89.9,80.8,89.9L80.8,89.9z"/>
		
			<linearGradient id="SVGID_4_" gradientUnits="userSpaceOnUse" x1="18.36" y1="60.1377" x2="47" y2="60.1377" gradientTransform="matrix(1 0 0 -1 0 160)">
			<stop  offset="0" style="stop-color:#5954C0"/>
			<stop  offset="1" style="stop-color:#1E0F78"/>
		</linearGradient>
		<path class="st4" d="M34.9,119.7c-0.9,0-1.6-0.7-1.6-1.5c0-0.6,0.3-1.2,0.9-1.5l7.4-4.3c2.2-1.3,2.9-4.1,1.7-6.3
			c-0.1-0.2-0.2-0.4-0.4-0.5L26.5,84.9c-1.4-1.8-3.9-2.3-5.8-1.2c-0.7,0.5-1.7,0.4-2.2-0.2c-0.5-0.7-0.4-1.7,0.2-2.2
			c0.1-0.1,0.3-0.2,0.4-0.3c3.3-1.8,7.5-1,9.8,2l16.3,20.7c2.7,3.4,2.1,8.2-1.3,10.9c-0.3,0.2-0.6,0.4-0.9,0.6l-7.4,4.3
			C35.5,119.6,35.2,119.7,34.9,119.7z"/>
		
			<linearGradient id="SVGID_5_" gradientUnits="userSpaceOnUse" x1="26.85" y1="51.4954" x2="41" y2="51.4954" gradientTransform="matrix(1 0 0 -1 0 160)">
			<stop  offset="0" style="stop-color:#5954C0"/>
			<stop  offset="1" style="stop-color:#1E0F78"/>
		</linearGradient>
		<path class="st5" d="M39.4,117.1c-0.5,0-1-0.2-1.3-0.6l-11-14c-0.6-0.7-0.4-1.7,0.3-2.3s1.7-0.4,2.3,0.3l11,14
			c0.5,0.7,0.4,1.7-0.3,2.2C40.1,117,39.8,117.1,39.4,117.1L39.4,117.1z"/>
		
			<linearGradient id="SVGID_6_" gradientUnits="userSpaceOnUse" x1="38.24" y1="103.755" x2="101.59" y2="103.755" gradientTransform="matrix(1 0 0 -1 0 160)">
			<stop  offset="0" style="stop-color:#5954C0"/>
			<stop  offset="1" style="stop-color:#1E0F78"/>
		</linearGradient>
		<path class="st6" d="M39.8,79.9c-0.9,0-1.6-0.7-1.6-1.6V34.2c0-0.9,0.7-1.6,1.6-1.6l0,0H100c0.9,0,1.6,0.7,1.6,1.6v41.7
			c0,0.9-0.7,1.6-1.6,1.6c-0.9,0-1.6-0.7-1.6-1.6V35.7h-57v42.6C41.4,79.2,40.7,79.9,39.8,79.9z"/>
		
			<linearGradient id="SVGID_7_" gradientUnits="userSpaceOnUse" x1="57.58" y1="115.103" x2="82.26" y2="115.103" gradientTransform="matrix(1 0 0 -1 0 160)">
			<stop  offset="0" style="stop-color:#5954C0"/>
			<stop  offset="1" style="stop-color:#1E0F78"/>
		</linearGradient>
		<path class="st7" d="M80.7,57.2c-0.3,0-0.6-0.1-0.8-0.2l-9.9-6.1L60,57c-0.7,0.5-1.7,0.2-2.2-0.5c-0.2-0.2-0.2-0.5-0.2-0.8V34.2
			c0-0.9,0.7-1.6,1.6-1.6l0,0h21.5c0.9,0,1.6,0.7,1.6,1.6v21.5C82.3,56.5,81.5,57.2,80.7,57.2z M60.8,35.7v17l8.3-5.1
			c0.5-0.3,1.2-0.3,1.7,0l8.3,5.1v-17H60.8z"/>
	</g>
</g>
</svg>
