<svg id="Layer_1" data-name="Layer 1" width="458px" xmlns="http://www.w3.org/2000/svg" viewBox="0 0 196 35"><defs><style>.cls-1{fill:#fff000;}.cls-2{fill:#212121;}.cls-3{fill:#1c1c1b;}.cls-4{fill:none;stroke:#212121;stroke-miterlimit:10;stroke-width:1.1px;}</style></defs><title>logo</title><path class="cls-1" d="M16.9,1.38H179.52a16,16,0,0,1,15.77,16.09,16,16,0,0,1-15.77,16.09H16.9A16,16,0,0,1,1.13,17.47,16,16,0,0,1,16.9,1.38"/><path class="cls-2" d="M179.32,2.32H17.11A14.65,14.65,0,0,0,6.62,6.77a15.3,15.3,0,0,0,0,21.4,14.67,14.67,0,0,0,10.49,4.45H179.32a14.66,14.66,0,0,0,10.48-4.45,15.3,15.3,0,0,0,0-21.4,14.65,14.65,0,0,0-10.48-4.45M17.11.44H179.32a16.49,16.49,0,0,1,11.79,5,17.21,17.21,0,0,1,0,24.06,16.49,16.49,0,0,1-11.79,5H17.11a16.48,16.48,0,0,1-11.79-5,17.21,17.21,0,0,1,0-24.06,16.48,16.48,0,0,1,11.79-5"/><path class="cls-3" d="M175.65,9.52l.88-.08.77,0a4.48,4.48,0,0,1,3.08.9,3.66,3.66,0,0,1,1,2.84,3.81,3.81,0,0,1-1,2.95,4.7,4.7,0,0,1-3.24.94q-.66,0-1.44,0Zm0,8.44.89,0a4,4,0,0,1,.55.05,1,1,0,0,1,.38.14,1.19,1.19,0,0,1,.3.28c.09.12.2.28.33.49q.66,1,1.26,2.09t1.15,2q.55.95,1.06,1.69a4.77,4.77,0,0,0,1,1.14,2.76,2.76,0,0,0,.5.31,2.92,2.92,0,0,0,.56.2,4.18,4.18,0,0,0,.71.1l.92,0a12.79,12.79,0,0,0,1.55-.12l0-.56-.58-.15a4.31,4.31,0,0,1-.5-.18,2.33,2.33,0,0,1-.45-.26,3.86,3.86,0,0,1-.43-.38,7.82,7.82,0,0,1-.91-1.15q-.49-.73-1.08-1.68T181.57,20q-.69-1.14-1.5-2.37a6.44,6.44,0,0,0,3.09-1.82,4.59,4.59,0,0,0,1-3.09,3.76,3.76,0,0,0-1.47-3.21,7.35,7.35,0,0,0-4.42-1.1h-.74l-1.16,0-1.16,0-.79,0q-1.57,0-3.22-.05l0,.55,1.59.5a.44.44,0,0,1,.31.43c0,.28,0,.6,0,.95s0,.74,0,1.18V22.4q0,.77,0,1.4t0,1.14a.43.43,0,0,1-.35.4l-1.57.47.05.55q1.62,0,3.17,0t3,0l0-.55L176,25.39a.48.48,0,0,1-.33-.5c0-.33,0-.7,0-1.11s0-.87,0-1.38Z"/><path class="cls-3" d="M25.24,17.38l-1.71,0a6.54,6.54,0,0,1-4.36-1.24,4.9,4.9,0,0,1-1.43-3.91A4.82,4.82,0,0,1,19,8.53a5.87,5.87,0,0,1,4.06-1.18,19.64,19.64,0,0,1,2.16.13Zm3.19,6.51V10.77q0-.85,0-1.51t0-1.24a.59.59,0,0,1,.39-.57l2.05-.64-.07-.72q-2.2.07-4,.07-1.32,0-2.46-.07T22.26,6a9.59,9.59,0,0,0-5.85,1.66,5.45,5.45,0,0,0-2.25,4.66q0,4.48,4.84,5.76-.86,1.4-1.56,2.66t-1.33,2.35q-.78,1.33-1.4,2.36A8.38,8.38,0,0,1,13.55,27a4.47,4.47,0,0,1-.58.5,3.4,3.4,0,0,1-.56.32,4.77,4.77,0,0,1-.64.23L11,28.3l0,.72a14.36,14.36,0,0,0,1.82.13c.45,0,.84,0,1.17,0a5.78,5.78,0,0,0,.9-.12,2.9,2.9,0,0,0,.7-.25,4,4,0,0,0,.62-.41,6.89,6.89,0,0,0,1.51-1.81q.76-1.22,1.57-2.74.55-1,1.07-2t1.08-2c.13-.23.25-.42.35-.58a1.67,1.67,0,0,1,.33-.38,1,1,0,0,1,.42-.2,2.59,2.59,0,0,1,.59-.06h2.05v5.32q0,1,0,1.76t0,1.4a.61.61,0,0,1-.42.62l-1.86.57.07.7q1.81,0,3.81,0t4.1,0l0-.7-2-.6a.54.54,0,0,1-.44-.52q0-.68,0-1.47t0-1.76m32.33.66V10.34c0-2.59.64-3.5,2.12-3.53,1.08,0,1.18-.1,1.18-.37s-.2-.37-.64-.37c-.91,0-1.85.1-2.76.1s-1.85-.1-2.76-.1c-.3,0-.44.17-.57.5L50,23.64,42.57,6.4c-.1-.23-.27-.33-.61-.33h-.57c-.84,0-1.65.1-2.49.1s-1.65-.1-2.49-.1c-.44,0-.64.07-.64.37s.1.33,1.18.37c1.48,0,2.12.94,2.12,3.53V24.55c0,2.59-.64,3.5-2.12,3.53-1.08,0-1.18.1-1.18.37s.2.37.64.37c1,0,2.12-.1,3.16-.1s2.12.1,3.16.1c.44,0,.64-.07.64-.37s-.1-.33-1.18-.37c-1.48,0-2.12-.94-2.12-3.53V9h.07l8.08,19.29c.13.3.24.4.37.4s.34-.17.44-.44l7.71-17.88A13.51,13.51,0,0,0,57.19,9h.07V24.55c0,2.6-.64,3.51-2.12,3.54-1.08,0-1.18.1-1.18.37s.2.37.64.37c1.11,0,2.9-.1,4.41-.1s3.3.1,4.41.1c.44,0,.64-.07.64-.37s-.1-.33-1.18-.37c-1.48,0-2.12-.94-2.12-3.53m20.91-5H73.85l4-9.83s0,0,.07,0Zm9.53,8.85c0-.17-.1-.24-1.08-.3-1.45-.07-2.15-1.28-3-3.33L79.71,5.56H78.5l-7,17.67c-1.61,4-2.66,4.68-4.14,4.85-.64.07-.71.17-.71.3,0,.33.14.44.61.44,1,0,2.12-.1,3.16-.1s2.12.1,3.16.1c.57,0,.67,0,.67-.44,0-.17-.1-.2-.87-.3-1-.13-1.92-.4-1.92-1.48a3.18,3.18,0,0,1,.17-1l1.88-5.12H82L83,23a16,16,0,0,1,1,3.71c0,.71-.44,1.35-1.55,1.35-.94,0-1.14.13-1.14.3,0,.4.2.44.88.44,1.38,0,2.73-.1,4.11-.1s2.73.1,4.11.1c.64,0,.74,0,.74-.44m20.91,0c.27,0,.4-.2.4-.54V21.76c0-.57,0-.84-.34-.84s-.27.1-.6,1.28c-.88,3.1-2.69,6.4-7.41,6.4C100.75,28.59,96,26,96,18.12,96,9.2,100.24,6.3,104.15,6.3a7,7,0,0,1,7.07,5.25c.17.94.34,1.15.6,1.15s.33-.34.33-.81c0-1.82-.27-3.63-.27-5.32,0-.27-.13-.47-.37-.47-.61,0-.24,1.21-1,1.21s-2.06-1.75-6.43-1.75c-6.36,0-12.29,4-12.29,12.49,0,6.26,4.07,11.28,12.12,11.28,5,0,6-2.25,7.14-2.25.4,0,.61.2.61.57,0,.54.17.71.44.71m27.4-17.24c.2,0,.27-.14.27-.44V6.57c0-.3-.1-.5-.57-.5-3.84,0-7.64.1-11.48.1s-7.64-.1-11.48-.1c-.47,0-.57.2-.57.5v4.11c0,.3.07.44.27.44s.44-.1.5-1.18c.17-2.52,2-2.93,4.34-2.93,5,0,5.18.13,5.18.64v16.9c0,2.59-.64,3.5-2.12,3.53-1.08,0-1.18.1-1.18.37s.2.37.64.37c1.11,0,2.89-.1,4.41-.1s3.3.1,4.41.1c.44,0,.64-.07.64-.37s-.1-.33-1.18-.37c-1.48,0-2.12-.94-2.12-3.53V7.65c0-.51.2-.64,5.18-.64,2.36,0,4.18.4,4.34,2.93.07,1.08.24,1.18.51,1.18m22,12.69c0-.27-.14-.4-.3-.4s-.44.2-.57.91c-.4,2.16-1.85,3.67-6.2,3.67-4.61,0-5.08-1.35-5.08-4.34v-6.2h1.15c2.19,0,3.87.57,4.31,2.73.2,1,.34,1.15.57,1.15s.37-.14.37-.41c0-1.41-.1-2.79-.1-4.21s.1-2.8.1-4.21c0-.27-.14-.4-.44-.4s-.44.17-.51,1.11c-.2,2.8-3.1,3.4-5.45,3.4V7.48c0-.54.34-.57,4.14-.57s5,.74,5.32,3.54a.46.46,0,0,0,.47.47c.24,0,.37-.14.37-.64V6.47c0-.33-.27-.4-.54-.4-2.56,0-5.25.1-7.91.1s-5.35-.1-8-.1c-.44,0-.64.07-.64.37s.1.33,1.18.37c1.48,0,2.12.94,2.12,3.54V24.55c0,2.59-.64,3.5-2.12,3.54-1.08,0-1.18.1-1.18.37s.2.37.64.37c2.93,0,5.85-.1,8.78-.1s5.86.1,8.79.1c.37,0,.54-.13.54-.44V27.24c0-.94.2-2.76.2-3.43"/><ellipse class="cls-4" cx="179.02" cy="17.47" rx="13.17" ry="12.71"/></svg>