<?xml version="1.0" encoding="utf-8"?>
<!-- Generator: Adobe Illustrator 21.0.1, SVG Export Plug-In . SVG Version: 6.00 Build 0)  -->
<svg version="1.1" height="18px" id="Layer_1" xmlns="http://www.w3.org/2000/svg" xmlns:xlink="http://www.w3.org/1999/xlink" x="0px" y="0px"
	 viewBox="0 0 20 20" style="enable-background:new 0 0 20 20;" xml:space="preserve">
<style type="text/css">
	.st0{fill:#9892FF;}
</style>
<path class="st0" d="M19.6,4.5C19.6,4.5,19.6,4.5,19.6,4.5C19.5,3.2,18.3,2,17,2H2.9C1.6,2,0.4,3.1,0.2,4.7v10.6
	c0,1.4,1.3,2.7,2.7,2.7H17c1.4,0,2.7-1.3,2.7-2.7V4.7C19.7,4.7,19.6,4.6,19.6,4.5z M2.9,3.8H17c0.3,0,0.6,0.2,0.8,0.5L10,9.8
	L2.2,4.3C2.3,4,2.6,3.8,2.9,3.8z M17,16.2H2.9c-0.5,0-0.9-0.5-0.9-0.9l0-9l7.5,5.2c0.2,0.1,0.3,0.2,0.5,0.2s0.4-0.1,0.5-0.2l7.4-5.2
	v8.9C17.9,15.7,17.4,16.2,17,16.2z"/>
</svg>
