<svg xmlns="http://www.w3.org/2000/svg" xmlns:xlink="http://www.w3.org/1999/xlink" viewBox="0 0 178.72 148.82"><defs><style>.cls-1{fill:#fff662;}.cls-2{fill:url(#linear-gradient);}.cls-3{fill:url(#linear-gradient-2);}</style><linearGradient id="linear-gradient" x1="106.41" y1="88.1" x2="106.41" y2="78.53" gradientUnits="userSpaceOnUse"><stop offset="0" stop-color="#5954c0"/><stop offset="1" stop-color="#1e0f78"/></linearGradient><linearGradient id="linear-gradient-2" x1="85.72" y1="110.48" x2="85.72" y2="19.96" xlink:href="#linear-gradient"/></defs><title>money</title><g id="Layer_2" data-name="Layer 2"><g id="Layer_1-2" data-name="Layer 1"><path class="cls-1" d="M153.55,8.54l.14-.49C153.64,8.19,153.6,8.35,153.55,8.54Z"/><path class="cls-1" d="M8.55,39.51l0-.09c-.11-.26-.12-.49-.24-.74Z"/><path class="cls-1" d="M153.94,3.34,153.7,4.6a15.54,15.54,0,0,1,.65-1.84A2.41,2.41,0,0,1,153.94,3.34Z"/><path class="cls-1" d="M153.43,65.58c-.8,2.47,15.16-60.35,6.67-59.39a22.92,22.92,0,0,0-3.76,8.6c.23-2.36-.2-3.37.35-6.18q-.45,2.15-1.41-2.24c-1.08-.68-12.7,25.73-13.24,29a49,49,0,0,0-1.8-21.87,49.25,49.25,0,0,0-10.59,8.8C118.18-5.26,77.54-2.51,51.46,5.46,22.88,14.21,2.79,50.67.24,79.09c-2.32,25.84,12.5,49.14,34.88,62.88,15.92,9.78,15.67,7,29.74,4.32-4.78.91,10.19-7.7,7.87-6,9.24-6.75,24.72,5.21,11.82-10.75A86,86,0,0,0,96,132.72c-10.57-15.19,8.7-.18,13-3.54,7.71-6,5.32-8.7,12.37-16.18,2.3-2.43,4.53,11.22,4.54,11.65-1.55-35.12.82,6.18.24-14.72.19,2.08,1,5.55,1,8,3.9-8.82,10.18-5.15,9.47-21.64a122.07,122.07,0,0,1-5.72,26.06c1.14-1.26,23.51,3.35,33.93-3.75C190.33,101.31,177.25,75.59,153.43,65.58ZM59.13,83.09c-2.05-8.18,15.27-23.66,23-14-23,11,5.43,16.65,3,22C79.49,90.07,63.06,85,59.13,83.09Z"/><path class="cls-2" d="M101.62,83.31a4.78,4.78,0,1,0,4.78-4.78A4.79,4.79,0,0,0,101.62,83.31Zm4.78-2a2,2,0,1,1-2,2A2,2,0,0,1,106.41,81.32Z"/><path class="cls-3" d="M125.17,29.14l-12.05-4.72h0l-7.05-2.76h0l-3.64-1.42a4,4,0,0,0-5.13,2.25l-3.38,8.65L78.42,25.07a4,4,0,0,0-5.12,2.22l-7.8,19H49.7a6,6,0,0,0-6,6v52.28a6,6,0,0,0,6,6h69a1.4,1.4,0,0,0,1.4-1.4v-4.79h5.48a1.4,1.4,0,0,0,1.4-1.4V49.76a3.46,3.46,0,0,0-3.46-3.46h-.87l4.73-12A4,4,0,0,0,125.17,29.14ZM97,55.41l6.38-16.31a4,4,0,0,0-1-4.33l3.91-10,4.45,1.74L99.49,55.41ZM86.8,31.34,77.38,55.41H72.25L82.34,29.6Zm2.6,1,4.8,1.88h0l6,2.33a1.17,1.17,0,0,1,.66,1.51L95.26,52.27,94,55.41H80.38Zm10.5-8.86a1.17,1.17,0,0,1,1.51-.66l2.34.92-3.81,9.73-3.43-1.34Zm-24,4.83a1.17,1.17,0,0,1,1.51-.66l2.34.92L69.25,55.41H64.78l2.94-7.17h0ZM49.7,49.09H64.36l-2.59,6.32H49.7a3.16,3.16,0,0,1,0-6.32Zm67.65,58.6H49.7a3.16,3.16,0,0,1-3.16-3.16V57.29a5.91,5.91,0,0,0,3.16.92h67.65V73.78H106a9.53,9.53,0,1,0,0,19.06h11.37ZM124.23,90H106a6.74,6.74,0,1,1,0-13.47h18.24Zm-4.09,11.45V92.84h4.09v8.66Zm3.42-52.41a.67.67,0,0,1,.67.67v24h-4.09V57.84A2.42,2.42,0,0,0,119,55.77l2.63-6.68Zm1.26-15.84-8.71,22.16H102.49L113.4,27.53l10.76,4.21A1.17,1.17,0,0,1,124.82,33.25Z"/></g></g></svg>