<svg xmlns="http://www.w3.org/2000/svg" xmlns:xlink="http://www.w3.org/1999/xlink" viewBox="0 0 135.87 82.33"><defs><style>.cls-1{fill:url(#linear-gradient);}.cls-2{fill:url(#linear-gradient-2);}.cls-3{fill:url(#linear-gradient-3);}.cls-4{fill:url(#linear-gradient-4);}.cls-5{fill:url(#linear-gradient-5);}.cls-6{fill:#ffcc5b;}.cls-7{fill:#909aa3;}.cls-8{fill:#f283c3;}.cls-9{fill:#6de2d9;}</style><linearGradient id="linear-gradient" y1="41.42" x2="118.74" y2="41.42" gradientUnits="userSpaceOnUse"><stop offset="0" stop-color="#5954c0"/><stop offset="1" stop-color="#1e0f78"/></linearGradient><linearGradient id="linear-gradient-2" x1="37.01" y1="32.01" x2="46.4" y2="32.01" xlink:href="#linear-gradient"/><linearGradient id="linear-gradient-3" x1="56.3" y1="32.01" x2="65.69" y2="32.01" xlink:href="#linear-gradient"/><linearGradient id="linear-gradient-4" x1="92.68" y1="45.35" x2="102.07" y2="45.35" xlink:href="#linear-gradient"/><linearGradient id="linear-gradient-5" x1="17.73" y1="32.01" x2="27.11" y2="32.01" xlink:href="#linear-gradient"/></defs><title>order</title><g id="Layer_2" data-name="Layer 2"><g id="Layer_1-2" data-name="Layer 1"><path class="cls-1" d="M109.17,63.24c6.18-5,9.57-11.44,9.57-18.26,0-15-16.67-27.22-37.16-27.22-.73,0-1.49,0-2.27.06C72.58,7.58,58.26.5,41.71.5,18.71.5,0,14.18,0,31,0,38.65,3.84,45.9,10.84,51.52L3.7,70.43a1.83,1.83,0,0,0,2.47,2.31l21.48-9.84a19,19,0,0,1,9.43-1.62c1.53.13,3.09.19,4.63.19a56.34,56.34,0,0,0,9.51-.81,36.11,36.11,0,0,0,13,8.4,1.83,1.83,0,0,0,1.32-3.42,33.83,33.83,0,0,1-10-5.89c8.61-2.2,15.79-6.36,20.7-11.68a4.69,4.69,0,1,0,4.94-7.27q.17-.37.33-.73l0-.1q.26-.61.48-1.23l.1-.27q.21-.6.38-1.2l.06-.2q.19-.69.34-1.39c0-.1,0-.2.06-.31.07-.36.13-.72.19-1.08,0-.15,0-.31.06-.46q.06-.5.1-1c0-.15,0-.29,0-.44,0-.47,0-.95,0-1.42s0-1-.05-1.44c0-.12,0-.24,0-.36q0-.58-.12-1.15l0-.28a23.43,23.43,0,0,0-1.85-6.33h.25c18.47,0,33.49,10.57,33.49,23.56,0,6-3.26,11.76-9.19,16.17a1.83,1.83,0,0,0-.62,2.12L110.45,77,96,70.37a21.87,21.87,0,0,0-10.79-2,47.39,47.39,0,0,1-11.36-.49,1.83,1.83,0,0,0-.6,3.61,51.07,51.07,0,0,0,12.25.53,18.32,18.32,0,0,1,9,1.65L113,82.17a1.83,1.83,0,0,0,2.47-2.31Zm-71.8-5.6a22.66,22.66,0,0,0-11.25,1.94l-17.43,8,6.05-16a1.83,1.83,0,0,0-.62-2.12C7.38,44.41,3.66,37.86,3.66,31c0-14.79,17.07-26.83,38-26.83,15.74,0,29.27,6.77,35.05,16.4l0,.08a21.33,21.33,0,0,1,2.21,5c0,.11.06.22.09.34.08.32.17.63.24,1s.08.42.11.63.09.45.12.68.07.57.09.86,0,.32.05.48q0,.68,0,1.36c0,.42,0,.84,0,1.26,0,.15,0,.3,0,.46s-.05.52-.08.78-.05.38-.09.57-.07.42-.11.63-.09.43-.14.65-.08.32-.12.48a20.68,20.68,0,0,1-1.41,3.82l-.07.14q-.23.47-.48.93l-.06.11a24.78,24.78,0,0,1-2.66,3.83h0c-.22.26-.45.52-.68.77l-.22.24-.64.67-.32.32-.62.6-.44.39-.58.51q-.51.43-1,.85l-.33.25-.86.63-.4.28-.85.57L67,51l-.92.56-.39.23-1.06.59-.3.16q-1.39.73-2.87,1.37l-.48.2-1,.4-.68.26-.8.29-.8.27-.68.22-.93.28-.49.14c-1.32.37-2.68.69-4.08,1a53,53,0,0,1-9.9.93C40.26,57.82,38.8,57.76,37.37,57.64Z"/><circle class="cls-2" cx="41.71" cy="32.01" r="4.69"/><circle class="cls-3" cx="60.99" cy="32.01" r="4.69"/><circle class="cls-4" cx="97.37" cy="45.35" r="4.69"/><circle class="cls-5" cx="22.42" cy="32.01" r="4.69"/><path class="cls-6" d="M80.61,14.69a3,3,0,0,0,.54,1.55A50.67,50.67,0,0,1,88,16.3l.3,0L89.9,6.17A3.91,3.91,0,0,0,87.79,2L82.66.11c-1.31-.48-2.32.62-2.29,2.34Z"/><path class="cls-7" d="M98.85,18.37l3.2-7.45a3.25,3.25,0,0,0-1.77-4.37l-6.1-2.23a2.55,2.55,0,0,0-3.36,2.21l-1.77,9.87A49.34,49.34,0,0,1,98.85,18.37Z"/><path class="cls-8" d="M110.42,24l6.15-7.41a2.72,2.72,0,0,0-1.24-4.53L108,9.36a3.92,3.92,0,0,0-4.81,2l-3.34,7.33A40.12,40.12,0,0,1,110.42,24Z"/><path class="cls-9" d="M133.8,18.82l-9.1-3.33a6.71,6.71,0,0,0-6.81,1.62l-6.58,7.55a25.2,25.2,0,0,1,7.61,9,2.64,2.64,0,0,0,.4-.21l14.91-10C136.54,21.93,136.41,19.77,133.8,18.82Z"/></g></g></svg>