<svg xmlns="http://www.w3.org/2000/svg" xmlns:xlink="http://www.w3.org/1999/xlink" viewBox="0 0 159.93 158.89"><defs><style>.cls-1{fill:#f4ecf7;}.cls-2{fill:#fff662;}.cls-3{fill:url(#linear-gradient);}.cls-4{fill:url(#linear-gradient-2);}.cls-5{fill:url(#linear-gradient-3);}.cls-6{fill:url(#linear-gradient-4);}.cls-7{fill:url(#linear-gradient-5);}.cls-8{fill:none;}.cls-9{fill:url(#linear-gradient-6);}</style><linearGradient id="linear-gradient" x1="37.31" y1="89.5" x2="46.47" y2="89.5" gradientUnits="userSpaceOnUse"><stop offset="0" stop-color="#5954c0"/><stop offset="1" stop-color="#1e0f78"/></linearGradient><linearGradient id="linear-gradient-2" x1="47.92" y1="89.5" x2="56.37" y2="89.5" xlink:href="#linear-gradient"/><linearGradient id="linear-gradient-3" x1="57.68" y1="89.5" x2="65.91" y2="89.5" xlink:href="#linear-gradient"/><linearGradient id="linear-gradient-4" x1="67.35" y1="89.5" x2="74.58" y2="89.5" xlink:href="#linear-gradient"/><linearGradient id="linear-gradient-5" x1="75.74" y1="89.5" x2="84.19" y2="89.5" xlink:href="#linear-gradient"/><linearGradient id="linear-gradient-6" x1="23.05" y1="80.55" x2="129.75" y2="80.55" xlink:href="#linear-gradient"/></defs><title>order_1</title><g id="Layer_2" data-name="Layer 2"><g id="Layer_1-2" data-name="Layer 1"><path class="cls-1" d="M159.5,65.06c-7.16-5.37-9-3.72-5-5-7.89-9.87-4.36-4.5-11.11-9,11.13,5.13,5.66-2.34,14.11,8C174.78,15.86,95-24.86,79.36,18.58,59,19.1,34.2,8.71,25,19.06c-7,7.86-7.41,16.87,8.19,17.39-10.35.91-20.67,3.3-30.69,5.61a23.3,23.3,0,0,0,8,11c-19,3.79-7.32,39.62-2.86,53.13,9.32,28.23,26.43,41.69,55.75,49.2,29.67,7.6,53.51,3.93,71.73-22.18,4.28-6.13,7.45-15.41,9-19.35,3.33-8.32,18-11.79,3.35-11.8a17.23,17.23,0,0,0,6-6c-1.19,1.19-.58-23.13-3-32A15.72,15.72,0,0,1,159.5,65.06ZM97.74,101.8c-16.81,2.5-43.7,1.89-55.85,2-29.28.26-20.34-16.25,4.55-13.36a13.45,13.45,0,0,0,1.46.07l-.51,0c9.88,0,40.16-5.06,49.16-5.06C100.68,86.8,95.64,98.61,97.74,101.8Z"/><path class="cls-2" d="M96.55,85.42"/><path class="cls-3" d="M46.47,89.71a6.17,6.17,0,0,1-.57,2.71,4.2,4.2,0,0,1-1.61,1.82,4.5,4.5,0,0,1-2.38.64,4.56,4.56,0,0,1-2.37-.62,4.18,4.18,0,0,1-1.62-1.76,6,6,0,0,1-.61-2.62v-.59a6.2,6.2,0,0,1,.57-2.72,4.19,4.19,0,0,1,1.62-1.82,4.79,4.79,0,0,1,4.77,0,4.26,4.26,0,0,1,1.62,1.8,6,6,0,0,1,.59,2.68Zm-2.57-.44a4.4,4.4,0,0,0-.52-2.37,1.67,1.67,0,0,0-1.49-.81q-1.9,0-2,2.85v.77a4.53,4.53,0,0,0,.51,2.37,1.67,1.67,0,0,0,1.52.83,1.65,1.65,0,0,0,1.47-.81,4.41,4.41,0,0,0,.52-2.34Z"/><path class="cls-4" d="M51.81,91H50.45v3.71H47.92V84.26H52a4.6,4.6,0,0,1,2.91.83,2.8,2.8,0,0,1,1,2.33,3.4,3.4,0,0,1-.44,1.81,3.14,3.14,0,0,1-1.38,1.16l2.19,4.23v.11H53.66Zm-1.37-1.94H52a1.44,1.44,0,0,0,1.08-.38,1.47,1.47,0,0,0,.36-1.06,1.48,1.48,0,0,0-.37-1.06A1.42,1.42,0,0,0,52,86.2h-1.6Z"/><path class="cls-5" d="M57.68,94.74V84.26h3.37a5,5,0,0,1,2.5.63,4.42,4.42,0,0,1,1.73,1.78,5.37,5.37,0,0,1,.63,2.57v.48a5.39,5.39,0,0,1-.61,2.58,4.44,4.44,0,0,1-1.71,1.78,4.85,4.85,0,0,1-2.46.65Zm2.53-8.52v6.58h.88A2,2,0,0,0,62.75,92a3.79,3.79,0,0,0,.58-2.3v-.45A3.76,3.76,0,0,0,62.75,87a2,2,0,0,0-1.7-.77Z"/><path class="cls-6" d="M73.85,90.29h-4v2.5h4.69v1.94H67.35V84.26h7.23v2H69.88v2.21h4Z"/><path class="cls-7" d="M79.63,91H78.27v3.71H75.74V84.26h4.12a4.6,4.6,0,0,1,2.91.83,2.8,2.8,0,0,1,1,2.33,3.4,3.4,0,0,1-.44,1.81A3.14,3.14,0,0,1,82,90.4l2.19,4.23v.11H81.48Zm-1.37-1.94h1.6a1.44,1.44,0,0,0,1.08-.38,1.47,1.47,0,0,0,.36-1.06,1.48,1.48,0,0,0-.37-1.06,1.42,1.42,0,0,0-1.08-.39h-1.6Z"/><path class="cls-8" d="M83,49.58l-1.16,8.21A7.4,7.4,0,1,0,96.57,59.6l1.11-10.47a1.71,1.71,0,0,1,.07-.22H83A1.82,1.82,0,0,1,83,49.58Z"/><path class="cls-8" d="M99.31,79.62V99.07a6,6,0,0,1-6,6H64.64l-.82,7.1H105l7.28-63.27H101.27a1.8,1.8,0,0,1,.06.6L100.22,60a11.07,11.07,0,1,1-22-2.71l1.16-8.21c0-.06,0-.1.05-.15H71.1L68.26,73.61h25A6,6,0,0,1,99.31,79.62Z"/><path class="cls-8" d="M116,48.92l-4.8,41.72L109,110l7.19-5.44a1.83,1.83,0,0,1,2.21,0L125.6,110l-7-61.06Z"/><path class="cls-9" d="M122,46.87a1.84,1.84,0,0,0-1.82-1.63H69.47a1.83,1.83,0,0,0-1.82,1.63L64.57,73.61H29.06a6,6,0,0,0-6,6V99.07a6,6,0,0,0,6,6H60.94l-1,8.73a1.83,1.83,0,0,0,1.82,2h45a1.83,1.83,0,0,0,.6-.11l.1-.05a1.82,1.82,0,0,0,.36-.2l9.51-7.19,9.51,7.19a1.84,1.84,0,0,0,2.93-1.67ZM81.88,57.79,83,49.58a1.82,1.82,0,0,0,0-.67H97.74a1.71,1.71,0,0,0-.07.22L96.57,59.6a7.4,7.4,0,1,1-14.68-1.81ZM29.06,101.42a2.34,2.34,0,0,1-2.34-2.34V79.62a2.34,2.34,0,0,1,2.34-2.34H64.14L67.35,80h29.2c1.29,0-.92-1.72-.92-.43V99.07a2.34,2.34,0,0,1-2.34,2.34H29.06Zm76,10.77H63.82l.82-7.1H93.3a6,6,0,0,0,6-6V79.62a6,6,0,0,0-6-6h-25L71.1,48.92h8.35c0,.05,0,.1-.05.15l-1.16,8.21a11.07,11.07,0,1,0,22,2.71l1.11-10.47a1.8,1.8,0,0,0-.06-.6h11.06Zm13.36-7.65a1.83,1.83,0,0,0-2.21,0L109,110l2.23-19.34L116,48.92h2.54l7,61.06Z"/></g></g></svg>