<?xml version="1.0" encoding="utf-8"?>
<!-- Generator: Adobe Illustrator 21.0.1, SVG Export Plug-In . SVG Version: 6.00 Build 0)  -->
<svg version="1.1" height="20px" id="Layer_1" xmlns="http://www.w3.org/2000/svg" xmlns:xlink="http://www.w3.org/1999/xlink" x="0px" y="0px"
	 viewBox="0 0 24 24" style="enable-background:new 0 0 24 24;" xml:space="preserve">
<style type="text/css">
	.st0{fill:#9892FF;}
</style>
<path class="st0" d="M16.6,22L16.6,22c0.6,0,1.1-0.2,1.4-0.6l2.7-2.7c0.1-0.1,0.2-0.2,0.2-0.3C21,18.3,21,18.1,21,18s0-0.3-0.1-0.4
	c-0.1-0.1-0.1-0.2-0.2-0.3l-4-4c-0.1-0.1-0.2-0.2-0.3-0.2C16.3,13,16.1,13,16,13s-0.3,0-0.4,0.1c-0.1,0.1-0.2,0.1-0.3,0.2l-1.2,1.2
	c-0.3,0.3-0.6,0.4-1,0.2c-0.8-0.3-1.7-0.7-2.4-1.4c-0.7-0.7-1.1-1.7-1.4-2.4c-0.1-0.3,0-0.7,0.2-1l1.2-1.2c0.1-0.1,0.2-0.2,0.2-0.3
	C11,8.3,11,8.1,11,8s0-0.3-0.1-0.4c-0.1-0.1-0.1-0.2-0.2-0.3l-4-4C6.5,3.1,6.3,3,6,3C5.7,3,5.5,3.1,5.3,3.3L2.6,6
	C2.2,6.4,2,6.9,2,7.4c0,1.4,0.4,6.4,4.3,10.3S15.1,22,16.6,22L16.6,22z M6.7,6.1l1.2,1.2c0.4,0.4,0.4,1,0,1.3L7.3,9.3
	C7.2,9.4,7.1,9.5,7,9.7C7,9.9,7,10,7,10.2c0,0.1,0.6,2.8,2.3,4.5s4.4,2.2,4.5,2.3c0.2,0,0.3,0,0.5,0c0.2,0,0.3-0.1,0.4-0.3l0.6-0.6
	c0.4-0.4,1-0.4,1.3,0l1.2,1.2c0.4,0.4,0.4,1,0,1.3l-1,1c-0.2,0.2-0.5,0.3-0.7,0.3c-1.6-0.1-5.4-0.7-8.4-3.7c-3-3-3.6-6.9-3.7-8.5
	c0-0.3,0.1-0.5,0.3-0.7l0.9-0.9C5.7,5.7,6.3,5.7,6.7,6.1z M21,11c0.6,0,1-0.5,1-1.1c-0.5-4.2-3.6-7.4-7.8-7.9C13.5,2,13,2.5,13,3.1
	v0c0,0.5,0.4,0.9,0.9,1c3.3,0.4,5.7,2.7,6.1,6C20,10.6,20.5,11,21,11L21,11z"/>
<path class="st0" d="M13,7.5c0,0.3,0.2,0.6,0.5,0.6c1.4,0.1,2.1,0.7,2.4,2.1c0.1,0.5,0.5,0.9,1,0.9h0c0.6,0,1.1-0.5,1-1.1
	c-0.3-2.1-1.6-3.4-3.7-3.8C13.6,6,13,6.5,13,7.1L13,7.5z"/>
</svg>
