<?xml version="1.0" encoding="utf-8"?>
<!-- Generator: Adobe Illustrator 21.0.1, SVG Export Plug-In . SVG Version: 6.00 Build 0)  -->
<svg version="1.1" height="25px" id="Layer_1" xmlns="http://www.w3.org/2000/svg" xmlns:xlink="http://www.w3.org/1999/xlink" x="0px" y="0px"
	 viewBox="0 0 67.9 91" style="enable-background:new 0 0 67.9 91;" xml:space="preserve">
<style type="text/css">
	.st0{fill:#9892FF;}
</style>
<title>regime</title>
<g>
	<path class="st0" d="M67.9,46.1c0-9.6-4-18.3-10.4-24.4L53.2,2.4C52.9,1,51.7,0,50.3,0H17.5c-1.4,0-2.6,1-2.9,2.4l-4.3,19.5
		C4,28,0,36.6,0,46.1c0,9.7,4.1,18.5,10.6,24.6l3.9,17.9c0.3,1.4,1.5,2.4,2.9,2.4h32.8c1.4,0,2.6-1,2.9-2.4l3.9-17.8
		C63.7,64.7,67.9,55.9,67.9,46.1z M19.9,6h27.9l2.3,10.3c-4.8-2.6-10.3-4.1-16.2-4.1c-5.9,0-11.5,1.5-16.3,4.2L19.9,6z M6,46.1
		c0-15.4,12.5-27.9,27.9-27.9c15.4,0,27.9,12.5,27.9,27.9S49.3,74.1,33.9,74.1C18.5,74.1,6,61.5,6,46.1z M47.8,85H19.9l-2-9
		c4.8,2.6,10.2,4,16,4c5.7,0,11.1-1.4,15.9-4L47.8,85z"/>
	<path class="st0" d="M33.9,51.6c1.9,0,3.6-1,4.6-2.5l12.3,0.1c0,0,0,0,0,0c1.6,0,3-1.3,3-3c0-1.7-1.3-3-3-3L38.4,43
		c-0.4-0.6-0.9-1.1-1.5-1.5V25c0-1.7-1.3-3-3-3c-1.7,0-3,1.3-3,3v16.6c-1.4,1-2.4,2.6-2.4,4.5C28.5,49.1,30.9,51.6,33.9,51.6z"/>
</g>
</svg>
