<svg id="Layer_1" data-name="Layer 1" xmlns="http://www.w3.org/2000/svg" viewBox="0 0 620 20"><defs><style>.cls-1{fill:#7973d2;}</style></defs><title>violet_line</title><path class="cls-1" d="M531.59,13,530,12.91A4.87,4.87,0,0,0,531.59,13Z"/><path class="cls-1" d="M128.6,13.08l-.38,0Z"/><path class="cls-1" d="M469.71,8.91h.08l.41,0Z"/><path class="cls-1" d="M550.92,9.24c-21.31-.15-27-.72-49.05-.49-10.54,0-21.78.09-32.08.15-4.89.45-13.52,0-19.31.38L448.24,9a50.75,50.75,0,0,1-6.34.08L442,9c-3,.19-6.34.08-7.82.17l.12-.07-3.62,0,.62-.1c-5.19.2-10.54.22-15.26.12l.39.31c-10.08-.34-13.77.29-22.87-.11l.12-.07c-11.5.81-18.18-.55-30,.22,1.48-.1-.63-.16-.51-.23-5.46.09-11.29.13-11.38.73-4,0-3.24-.19-3.76-.42,0,.26-3.43.37-6.54.39l1.43-.1L334,10l1.75.5c-4.72-.14-1.2-.61-5.72-.49l.06.41c-6.53-.08-10.36-.7-16.68-1-26.27-.18-54.49.87-78.94.15l-1.08-.31c-.47-.45-6.74.67-7.67.25l-2.84.21c-.8-.08-2.48-.17-1.07-.27a37.49,37.49,0,0,0-4.59.19l-2.82-.28c-10.37-.22-19.19.32-30.11.21-13.11-.57-37.79,0-52,.26-20,.67-43.23-1.12-63.7-.35a11.82,11.82,0,0,0-2.38.13L47.51,9.53s-90.81-.17-21.82,3.57l-.46.1c10.25.24,16.7.29,23.77-.2,1.12.61,8.42.06,10.82.26l-.23,0c6.25-.47,12.88.39,18.91,0a4.36,4.36,0,0,1-1.75.22c4.39-.08,10.4-.21,10.72.14,10.49-.09,25.13.07,31.85-.49l-.46.1c3.83-.38,5-.06,9.24-.25a2.75,2.75,0,0,1,.49.09c4.17-.38,12.18-.06,15.55-.22l.22.23,8.31-.05-3.1-.05c1.08-.64,6.28.4,12.31,0,5.64.08,11.44-1.34,17.29-1,2.79-.3-2.46.49,1.71.26.14.34-1.95.21-.87.48,4.1-.16,6.72.34,11.78.12l.21.26c6.6-.48,12.44.34,16.83-.11,6.8-.22,4.56.78,11.64.26l2.75.35c3,.06,2.17-.43,5.53-.26-.2.22,4.25.18,2.28.39,7.61.35,15.44-.5,25.46.09,2.18-.43,7.22-.18,8.84-.5.27.19,10.1,0,4.44.44a4,4,0,0,1-1.29,0l-.68.26c5.71.49,10.38-.27,16-.19-1.68-.09-3.91-.06-2.42-.24l5.25,0-1.09.22,7.82.13-1.08-.27c3.83.14,5.18.59,9.49.21,2-.21-3.63-.36.42-.45,5.12.18,12.79.46,19.32.54-.61-.3,1.15-.29,3-.35l.21.26c6.93-.36,2.54.58,9.42.29l-.61.18,1.82-.55c6.21-.52,3.35.54,10.25-.17-2.73,0-1.29-.58,2.07-.46l-.85.25c1.86-.05,2.48-.16,3.72-.11-1.11.14-.58.37,2.15.32l-1.83.32,5.17-.47c4,.27,10.31-.07,11.95.29,0,0,8.58.17,10.54-.22-1.72.24,3,.34,1.66.62a75.65,75.65,0,0,1,11.41-.21l-.5,0c9.72.3,16.62-.41,25.34,0-.4-.3,4.21-.14,3.07-.53,9-.38,16.45.79,19.71-.41a69.66,69.66,0,0,1,7,.34l-1,.06c7.69-.1,9.92-.11,15.63-.08,2.85-.12,3.3-.68,8.41-.54-1.65.22.44.18,2.35.18-1.22,0-1.6.12.91.27a13.38,13.38,0,0,1,1.41-.15s.12,0,.07.05c3.19-.08,2.63-.15,1.15-.18.07,0-.05-.08-.51-.14,3.31.29,9.23,0,9.63.36,9.59-.09,16.45-.48,24.43-.63.9.2-1,.37-3.29.45l5.66-.07c0,.28-3.25.16-5,.22,6.74.46,13.9-.46,21.8,0l1.64-.22.47,0a12.6,12.6,0,0,1,2.92-.32c1.12.25-.08.57,3.84.55,3.09.24,8.79-.12,12.85-.25-2.18,0-1.48-.18-.54-.26,2,0,3.08.24,4.6.13l.19.33c-.77-.31,5.11-.34,5.84-.47,1.11.25-3,.21-3.53.4l11.77,0c4.19-.25-.76-.31,1.24-.6,3.7-.06,7.3-.3,11.55-.1L579.37,12a151.64,151.64,0,0,1,15.78.1c51.74-2.4,10.9-3.28,10.9-3.28C585.68,8.15,575.17,9,550.92,9.24Z"/></svg>