<svg id="Layer_1" data-name="Layer 1" xmlns="http://www.w3.org/2000/svg" viewBox="0 0 197.49 3.24"><defs><style>.cls-1{fill:#fff;}</style></defs><title>w_line</title><path class="cls-1" d="M169,2.52l-.51-.07S168.6,2.51,169,2.52Z"/><path class="cls-1" d="M40.92,2.54l-.12,0Z"/><path class="cls-1" d="M149.3.19h0l.13,0Z"/><path class="cls-1" d="M175.11.38C168.34.3,166.54,0,159.52.11c-3.35,0-6.92,0-10.19.09-1.55.25-4.3,0-6.13.21l-.71-.14a9.11,9.11,0,0,1-2,0l0,0c-.95.11-2,0-2.48.1l0,0-1.15,0,.2-.06a47.76,47.76,0,0,1-4.85.07l.12.17c-3.2-.19-4.38.16-7.27-.06l0,0c-3.65.45-5.78-.31-9.54.12.47-.05-.2-.09-.16-.13-1.73,0-3.59.07-3.62.41-1.26,0-1-.11-1.19-.24,0,.15-1.09.21-2.08.22L109,.75,106.19.8l.56.28c-1.5-.08-.38-.34-1.82-.27l0,.23c-2.07,0-3.29-.4-5.3-.57C91.3.37,82.34,1,74.57.55L74.23.38c-.15-.25-2.14.38-2.44.14l-.9.12c-.25,0-.79-.09-.34-.15a6.77,6.77,0,0,0-1.46.11l-.9-.16c-3.3-.12-6.1.18-9.57.12-4.17-.32-12,0-16.53.15C35.75,1.08,28.36.07,21.86.5a2.15,2.15,0,0,0-.75.07l-6,0s-28.85-.1-6.93,2l-.15.06a43.94,43.94,0,0,0,7.55-.11c.35.34,2.68,0,3.44.15l-.07,0c2-.26,4.09.22,6,0a.86.86,0,0,1-.56.13c1.4,0,3.3-.12,3.41.08,3.33-.05,8,0,10.12-.28l-.15.06a25.65,25.65,0,0,1,2.94-.14c.07,0,.17,0,.16.05,1.33-.21,3.87,0,4.94-.12l.07.13,2.64,0-1,0c.34-.36,2,.23,3.91,0,1.79,0,3.63-.75,5.49-.58.89-.17-.78.28.54.15,0,.19-.62.12-.28.27,1.3-.09,2.14.19,3.74.07l.07.15c2.1-.27,4,.19,5.35-.06,2.16-.12,1.45.44,3.7.15l.87.2c1,0,.69-.24,1.76-.15-.06.13,1.35.1.72.22,2.42.2,4.91-.28,8.09.05.69-.24,2.29-.1,2.81-.28.09.11,3.21,0,1.41.25-.15,0-.43,0-.41,0L85.15,3c1.82.27,3.3-.15,5.09-.11-.53,0-1.24,0-.77-.14l1.67,0-.35.12L93.29,3l-.34-.15A10.23,10.23,0,0,0,96,3c.62-.12-1.15-.2.13-.25,1.63.1,4.06.26,6.14.3-.19-.17.36-.16.94-.2l.07.15c2.2-.21.81.32,3,.16l-.19.1.58-.31c2-.29,1.06.31,3.26-.09-.87,0-.41-.33.66-.26l-.27.14a9.25,9.25,0,0,1,1.18-.06c-.35.08-.19.21.68.18l-.58.18,1.64-.26c1.27.15,3.28,0,3.8.16a18.64,18.64,0,0,0,3.35-.12c-.55.14,1,.19.53.35A13.61,13.61,0,0,1,124.48,3l-.16,0c3.09.17,5.28-.23,8.05,0-.13-.17,1.34-.08,1-.3,2.87-.22,5.23.45,6.26-.23a12.6,12.6,0,0,1,2.22.19l-.31,0c2.44-.06,3.15-.06,5,0a10.47,10.47,0,0,1,2.67-.3c-.53.13.14.1.75.1-.39,0-.51.07.29.15a2.48,2.48,0,0,1,.45-.08s0,0,0,0c1,0,.84-.08.37-.1,0,0,0,0-.16-.08,1.05.16,2.93,0,3.06.2,3,0,5.23-.27,7.76-.36.29.11-.31.21-1,.25l1.8,0c0,.16-1,.09-1.59.12,2.14.26,4.42-.26,6.93,0l.52-.13.15,0a2.38,2.38,0,0,1,.93-.18c.36.14,0,.32,1.22.31a28.09,28.09,0,0,0,4.08-.14c-.69,0-.47-.1-.17-.15.62,0,1,.13,1.46.07l.06.19c-.24-.18,1.62-.19,1.85-.27.35.14-1,.12-1.12.22l3.74,0c1.33-.14-.24-.18.39-.34a29.61,29.61,0,0,1,3.67-.05l-.43-.17a27.2,27.2,0,0,1,5,.06C205.6.63,192.63.13,192.63.13,186.15-.23,182.81.25,175.11.38Z"/></svg>