<svg 
 xmlns="http://www.w3.org/2000/svg"
 xmlns:xlink="http://www.w3.org/1999/xlink"
 width="130px" height="65px">
<path fill-rule="evenodd"  opacity="0.8" fill="rgb(93, 149, 83)"
 d="M129.441,0.537 L129.016,0.113 L129.866,0.113 L129.441,0.537 ZM97.220,0.537 L96.796,0.113 L97.645,0.113 L97.220,0.537 ZM64.999,0.537 L64.574,0.113 L65.423,0.113 L64.999,0.537 ZM32.776,0.537 L32.352,0.113 L33.201,0.113 L32.776,0.537 ZM16.665,3.759 L23.109,10.202 L16.665,16.646 L10.222,10.202 L16.665,3.759 ZM32.776,19.867 L39.220,26.312 L32.776,32.756 L26.333,26.312 L32.776,19.867 ZM42.443,10.202 L48.887,3.759 L55.330,10.202 L48.887,16.646 L42.443,10.202 ZM48.887,48.864 L42.443,42.420 L48.887,35.977 L55.330,42.420 L48.887,48.864 ZM58.554,26.312 L64.999,19.867 L71.442,26.312 L64.999,32.756 L58.554,26.312 ZM64.999,64.971 L58.554,58.529 L64.999,52.085 L71.442,58.529 L64.999,64.971 ZM74.665,10.202 L81.110,3.759 L87.553,10.202 L81.110,16.646 L74.665,10.202 ZM81.110,48.864 L74.665,42.420 L81.110,35.977 L87.553,42.420 L81.110,48.864 ZM97.220,19.867 L103.665,26.312 L97.220,32.756 L90.776,26.312 L97.220,19.867 ZM113.331,3.759 L119.776,10.202 L113.331,16.646 L106.887,10.202 L113.331,3.759 ZM0.555,0.537 L0.130,0.113 L0.979,0.113 L0.555,0.537 Z"/>
</svg>